<?xml version="1.0" encoding="UTF-8"?>
<svg version="1.1" xmlns="http://www.w3.org/2000/svg" width="800" height="800">
<path d="M0 0 C0.495 0.99 0.495 0.99 1 2 C1.639375 2.309375 2.27875 2.61875 2.9375 2.9375 C5 4 5 4 7 7 C6.9375 10 6.9375 10 6 13 C2.2191941 15.68857308 -2.09964882 17.55493732 -6.24707031 19.61474609 C-27.35127153 30.23422443 -40.50881146 43.66630549 -49.18359375 66.0546875 C-57.34847126 90.99793968 -56.02560295 122.08850495 -44.125 145.625 C-42.80072647 148.11436329 -41.41438663 150.56099069 -40 153 C-39.18402344 154.47146484 -39.18402344 154.47146484 -38.3515625 155.97265625 C-31.61898415 167.38519759 -22.30222921 177.10668992 -11 184 C-9.71996094 184.85464844 -9.71996094 184.85464844 -8.4140625 185.7265625 C4.4850431 193.9285148 19.99508912 198.58970889 35 201 C36.26328125 201.20367188 37.5265625 201.40734375 38.828125 201.6171875 C78.92444193 207.45720856 120.98058826 199.65661745 158 184 C158.91910156 183.65453125 159.83820313 183.3090625 160.78515625 182.953125 C163.14884718 182.09782464 163.14884718 182.09782464 165 180 C165.66 180 166.32 180 167 180 C166.8567257 177.229014 166.71041993 174.45823895 166.5625 171.6875 C166.52318359 170.92115234 166.48386719 170.15480469 166.44335938 169.36523438 C166.21886579 165.20346868 165.91195783 161.07135352 165.48046875 156.92578125 C164.78575074 149.46131351 164.75597809 141.9903484 164.75 134.5 C164.74932526 133.73432709 164.74865051 132.96865417 164.74795532 132.17977905 C164.78661093 104.32642847 168.36011028 76.66643735 177.86328125 50.38671875 C179.15909765 47.12138628 179.15909765 47.12138628 179 44 C179.66 44 180.32 44 181 44 C181.268125 43.0925 181.53625 42.185 181.8125 41.25 C183.67151767 36.16216216 183.67151767 36.16216216 186 34 C189.1875 33.75 189.1875 33.75 192 34 C192.433125 34.928125 192.433125 34.928125 192.875 35.875 C193.93720042 38.13325765 193.93720042 38.13325765 196 40 C200.16905922 46.51274656 203.77312226 53.34973495 207.25 60.25 C207.57887207 60.89855957 207.90774414 61.54711914 208.24658203 62.21533203 C214 73.79559086 214 73.79559086 214 80 C214.99 80.33 215.98 80.66 217 81 C216.34 81 215.68 81 215 81 C215.30893932 82.6256807 215.6222695 84.25052748 215.9375 85.875 C216.11152344 86.77992188 216.28554688 87.68484375 216.46484375 88.6171875 C216.89963701 90.99956317 216.89963701 90.99956317 218 93 C218.02887669 95.08188026 218.00562178 97.1645803 217.95703125 99.24609375 C217.90893946 106.6456291 218.62675106 113.74776244 219.6875 121.0625 C219.86756592 122.3218335 220.04763184 123.58116699 220.2331543 124.87866211 C226.52954823 167.18365148 243.01716352 208.55509081 277.41015625 235.77734375 C286.07459538 242.05825687 296.4560934 248.35130726 306.9140625 251.09765625 C307.93242187 251.39542969 308.95078125 251.69320312 310 252 C310.33 252.66 310.66 253.32 311 254 C316.74269138 255.96123165 322.99544746 256.42813785 329 257 C329 257.66 329 258.32 329 259 C372.90368925 263.91182162 415.88785509 254.83185782 451.125 227.125 C452.7584752 225.7600792 454.38257678 224.38390467 456 223 C457.16864007 222.02658598 458.3379613 221.05398939 459.5078125 220.08203125 C460.75598977 219.03478483 462.00338818 217.9866094 463.25 216.9375 C464.11842529 216.21361084 464.11842529 216.21361084 465.00439453 215.47509766 C468.57763198 212.42978319 471.6755791 209.21351378 474.65625 205.58496094 C475.93175035 204.08050086 477.33937573 202.69106463 478.75 201.3125 C481.01940142 199.21386687 481.01940142 199.21386687 482 197 C483.13451247 194.73097506 484.66070604 193.32575769 486.46484375 191.57421875 C494.41753324 183.41917075 500.11229451 173.66143498 506 164 C507.30546644 161.87067179 508.61700237 159.74503945 509.9375 157.625 C510.46214844 156.77164063 510.98679687 155.91828125 511.52734375 155.0390625 C513 153 513 153 516 151 C519.26606297 150.65254649 521.36577208 150.71626646 524.375 152.0625 C526.85896367 155.024149 526.31510144 157.21109726 526 161 C524.93398419 163.67921527 523.85749088 166.04621347 522.5 168.5625 C521.95859375 169.6002356 521.95859375 169.6002356 521.40625 170.65893555 C520.28868264 172.78275007 519.14807602 174.89254558 518 177 C517.65839844 177.63486328 517.31679688 178.26972656 516.96484375 178.92382812 C510.48838062 190.89893544 502.564603 201.45618202 494 212 C491.87422321 214.62179137 489.87347604 217.18978594 488 220 C487.03447183 221.03342748 486.04249087 222.04250893 485.03125 223.03125 C484.17466797 223.87623047 484.17466797 223.87623047 483.30078125 224.73828125 C482.10026042 225.91276042 480.89973958 227.08723958 479.69921875 228.26171875 C478.84263672 229.10669922 478.84263672 229.10669922 477.96875 229.96875 C477.44732422 230.47857422 476.92589844 230.98839844 476.38867188 231.51367188 C474.7778047 233.15701889 474.7778047 233.15701889 473 236 C452.22994555 256.59514872 426.81129464 273.17866238 400.5 285.6875 C399.81228516 286.01459961 399.12457031 286.34169922 398.41601562 286.67871094 C394.94576419 288.27460892 391.72695642 289.25599937 388 290 C387.67 290.66 387.34 291.32 387 292 C385.0234375 292.7109375 385.0234375 292.7109375 382.375 293.375 C379.09405301 294.21107143 375.82331706 295.05025112 372.56640625 295.9765625 C352.93137767 301.51410554 333.27469961 302.88298638 313 304 C313 303.34 313 302.68 313 302 C309.7 302.33 306.4 302.66 303 303 C303 302.34 303 301.68 303 301 C301.97519531 300.99613281 301.97519531 300.99613281 300.9296875 300.9921875 C283.25930574 300.31429562 262.02990457 294.41382997 247 285 C245.79946196 284.32092687 244.59606139 283.64690198 243.390625 282.9765625 C211.58290315 265.03909313 187.96097315 240.38871205 175 206 C174.61457031 205.11183594 174.22914063 204.22367188 173.83203125 203.30859375 C173 201 173 201 173 197 C169.24723794 195.592507 167.15192761 196.43813581 163.52734375 197.94921875 C162.46193359 198.38556641 161.39652344 198.82191406 160.29882812 199.27148438 C159.18958984 199.73876953 158.08035156 200.20605469 156.9375 200.6875 C154.75981168 201.58892548 152.58143041 202.48867884 150.40234375 203.38671875 C149.33999512 203.82806152 148.27764648 204.2694043 147.18310547 204.72412109 C143.1840614 206.32705132 139.13219492 207.74362072 135.04907227 209.11645508 C132.82410262 209.81491829 132.82410262 209.81491829 132 212 C131.04351562 211.95230469 130.08703125 211.90460938 129.1015625 211.85546875 C124.32515096 211.85906004 119.96780549 213.10459044 115.375 214.3125 C99.14928636 218.36176917 82.71639048 220.57831262 66 221 C65.13681152 221.02191406 64.27362305 221.04382813 63.38427734 221.06640625 C47.76012015 221.39585606 31.31624134 221.52718421 16 218 C15.67 218.66 15.34 219.32 15 220 C14.67 219.34 14.34 218.68 14 218 C11.36202817 217.33017941 8.79861105 216.78445047 6.125 216.3125 C5.39152344 216.17005859 4.65804687 216.02761719 3.90234375 215.88085938 C0.49269049 215.25668788 -1.66186696 214.88728899 -5 216 C-5.41483643 215.53303711 -5.82967285 215.06607422 -6.25708008 214.58496094 C-8.16235526 212.85235883 -9.42972508 212.33270302 -11.88671875 211.640625 C-12.65193848 211.41592529 -13.4171582 211.19122559 -14.20556641 210.9597168 C-15.02460449 210.72551025 -15.84364258 210.49130371 -16.6875 210.25 C-25.81705544 207.49209543 -34.41386779 204.13996702 -43 200 C-43.68803711 199.67161133 -44.37607422 199.34322266 -45.08496094 199.00488281 C-67.7284406 188.05238668 -86.66852096 172.17820839 -100.39453125 150.99609375 C-101.84246961 148.85801302 -101.84246961 148.85801302 -104.13671875 148.16015625 C-104.75160156 147.77730469 -105.36648437 147.39445313 -106 147 C-106.42240607 144.68113634 -106.738936 142.34252025 -107 140 C-108.0553558 136.48962601 -109.42210598 133.08676404 -110.74023438 129.66796875 C-114.49097916 119.56050266 -115.38879009 109.60369166 -115.375 98.875 C-115.37483887 97.69518555 -115.37467773 96.51537109 -115.37451172 95.29980469 C-115.24948487 85.66878902 -113.8480623 77.18863894 -111 68 C-110.64679688 66.73671875 -110.29359375 65.4734375 -109.9296875 64.171875 C-109.08507186 61.29024517 -108.41005018 59.53862524 -106.6171875 57.18359375 C-104.9216327 54.89418521 -103.55476203 52.52569106 -102.125 50.0625 C-84.9958279 23.01072081 -51.98223619 10.0001417 -22.1015625 3.2578125 C-14.77559593 1.68845203 -7.46385518 0.64516185 0 0 Z M-105 144 C-104 146 -104 146 -104 146 Z " fill="#FBFBFB" transform="translate(167,374)"/>
<path d="M0 0 C2.72771215 0.69400306 2.72771215 0.69400306 6.50390625 0.55078125 C6.50390625 1.21078125 6.50390625 1.87078125 6.50390625 2.55078125 C7.79296875 2.79441406 9.08203125 3.03804687 10.41015625 3.2890625 C15.62381968 4.45275381 20.21067365 6.41623282 25.00390625 8.73828125 C25.83688232 9.13756836 26.6698584 9.53685547 27.52807617 9.94824219 C33.45379294 12.86312024 38.58968072 16.11463648 43.50390625 20.55078125 C44.64861412 21.44805227 45.79435099 22.34401305 46.94140625 23.23828125 C49.39351207 25.45115723 50.13814048 26.67291766 51.50390625 29.55078125 C52.26409756 30.72440994 53.03548348 31.89084385 53.81640625 33.05078125 C64.34211868 49.99157285 65.15810239 68.53890942 61.0546875 87.64208984 C57.41399156 102.1939515 49.24442031 115.32154234 39.50390625 126.55078125 C38.54464554 127.75837849 37.58617272 128.96660255 36.62890625 130.17578125 C35.92765625 130.95953125 35.22640625 131.74328125 34.50390625 132.55078125 C33.84390625 132.55078125 33.18390625 132.55078125 32.50390625 132.55078125 C32.50390625 133.21078125 32.50390625 133.87078125 32.50390625 134.55078125 C29.21821976 137.93633663 26.49839982 139.53420636 21.75390625 139.61328125 C18.50390625 138.55078125 18.50390625 138.55078125 16.50390625 136.98828125 C14.27042928 131.54418113 16.94380435 124.54420738 18.44140625 119.11328125 C24.67271976 95.40217553 23.79661628 71.05142592 13.37890625 48.61328125 C11.79647745 45.29054596 11.79647745 45.29054596 8.50390625 44.55078125 C8.10171875 43.00390625 8.10171875 43.00390625 7.69140625 41.42578125 C5.09072229 31.48673323 -5.37996197 25.81366422 -13.49609375 20.55078125 C-16.44338912 19.39266737 -16.44338912 19.39266737 -19.49609375 19.55078125 C-19.82609375 18.56078125 -20.15609375 17.57078125 -20.49609375 16.55078125 C-23.97916205 15.00909528 -27.78853239 14.37703778 -31.49609375 13.55078125 C-32.61371094 13.26847656 -33.73132813 12.98617187 -34.8828125 12.6953125 C-54.58839053 8.38155287 -77.96105776 8.52080192 -97.49609375 13.55078125 C-98.37652344 13.75574219 -99.25695312 13.96070312 -100.1640625 14.171875 C-117.79258607 18.80187874 -135.20516116 28.0571669 -144.66015625 44.1171875 C-154.44881897 61.79844126 -155.65215074 80.75103423 -150.53125 100.21875 C-144.10050202 121.11326783 -130.23999367 138.72937305 -113.49609375 152.55078125 C-111.82422691 154.21223147 -110.15754397 155.87891441 -108.49609375 157.55078125 C-101.70137401 163.62628274 -94.63837308 169.32123543 -87.30859375 174.73828125 C-86.66100098 175.21990723 -86.0134082 175.7015332 -85.34619141 176.19775391 C-82.24170857 178.71092921 -82.24170857 178.71092921 -78.49609375 179.55078125 C-76.82212685 181.21011557 -75.15688572 182.87826052 -73.49609375 184.55078125 C-71.43284207 186.1255117 -69.37532479 187.63573694 -67.24609375 189.11328125 C-66.33972168 189.75172974 -66.33972168 189.75172974 -65.41503906 190.40307617 C-64.11670339 191.31703181 -62.81685301 192.22883888 -61.515625 193.13867188 C-44.21913823 205.23283042 -26.98500877 217.36796647 -10.49609375 230.55078125 C-9.62855469 231.22367188 -8.76101563 231.8965625 -7.8671875 232.58984375 C-1.29571062 237.7162286 4.82828879 243.26567145 10.86914062 248.99951172 C11.93437645 250.01034034 13.00322446 251.01738016 14.07617188 252.02001953 C22.36678072 259.79180692 28.99186005 268.25743229 35.50390625 277.55078125 C36.25124023 278.51153564 36.25124023 278.51153564 37.01367188 279.49169922 C38.4828813 281.52173073 39.55659742 283.48320222 40.625 285.74609375 C41.00116455 286.53886719 41.3773291 287.33164062 41.76489258 288.1484375 C42.15314209 288.98246094 42.5413916 289.81648438 42.94140625 290.67578125 C43.34319092 291.53816406 43.74497559 292.40054687 44.15893555 293.2890625 C44.9415916 294.97797709 45.72110133 296.66835418 46.49707031 298.36035156 C47.26515058 300.0313545 48.04898398 301.69512573 48.83984375 303.35546875 C58.35553779 324.74674895 58.03929816 351.1841977 52.50390625 373.55078125 C52.2704248 374.54899902 52.2704248 374.54899902 52.03222656 375.56738281 C47.35070177 395.21857372 37.87260905 412.70522474 25.50390625 428.55078125 C24.78589844 429.47246094 24.06789063 430.39414062 23.328125 431.34375 C19.43448232 436.05447401 19.43448232 436.05447401 16.62890625 437.55078125 C14.50390625 437.55078125 14.50390625 437.55078125 12.00952148 435.55810547 C9.05829853 432.01594779 8.13726735 428.85029557 7.2890625 424.43359375 C7.12672623 423.6463089 6.96438995 422.85902405 6.7971344 422.04788208 C5.08332174 413.23764456 4.4749989 404.37093213 3.94140625 395.42578125 C2.99629279 380.08431592 1.57343804 365.37863268 -3.7265625 350.80859375 C-4.49609375 348.55078125 -4.49609375 348.55078125 -4.49609375 346.55078125 C-6.14609375 346.55078125 -7.79609375 346.55078125 -9.49609375 346.55078125 C-8.01109375 345.06578125 -8.01109375 345.06578125 -6.49609375 343.55078125 C-7.15609375 342.89078125 -7.81609375 342.23078125 -8.49609375 341.55078125 C-8.63273438 340.96296875 -8.769375 340.37515625 -8.91015625 339.76953125 C-9.69641144 336.79224492 -11.19406511 334.6264708 -12.87109375 332.05078125 C-13.47695313 331.11234375 -14.0828125 330.17390625 -14.70703125 329.20703125 C-16.24041992 326.93038432 -17.82348746 324.72619557 -19.49609375 322.55078125 C-20.81609375 322.88078125 -22.13609375 323.21078125 -23.49609375 323.55078125 C-23.24988281 323.00035156 -23.00367188 322.44992187 -22.75 321.8828125 C-22.23507048 319.38457586 -22.23507048 319.38457586 -24.0859375 317 C-28.27830607 312.06821202 -32.43389648 307.41276013 -37.421875 303.27734375 C-39.7278785 301.35784554 -41.91677362 299.33609151 -44.12109375 297.30078125 C-49.77080398 292.20479453 -55.72504538 287.54518346 -61.74658203 282.90185547 C-63.38554541 281.63615308 -65.01790728 280.36247442 -66.6484375 279.0859375 C-73.6765557 273.61765386 -80.84977591 268.37679059 -88.08447266 263.18530273 C-93.31658297 259.42461762 -98.47358628 255.5893472 -103.49609375 251.55078125 C-104.15609375 251.88078125 -104.81609375 252.21078125 -105.49609375 252.55078125 C-105.99109375 251.06578125 -105.99109375 251.06578125 -106.49609375 249.55078125 C-107.98671948 248.17722025 -107.98671948 248.17722025 -109.80859375 246.98828125 C-110.75798828 246.33666016 -110.75798828 246.33666016 -111.7265625 245.671875 C-113.51084325 244.48995591 -113.51084325 244.48995591 -115.62109375 243.55078125 C-117.49609375 242.55078125 -117.49609375 242.55078125 -119.73828125 240.27734375 C-122.51082998 237.536212 -125.37518562 235.25866008 -128.49609375 232.92578125 C-137.55412518 226.07397631 -146.14340513 218.67852143 -154.66015625 211.16796875 C-155.96205385 210.02119086 -157.26997931 208.88123981 -158.58203125 207.74609375 C-168.58896283 199.07837978 -177.3451205 189.45376452 -185.13354492 178.75390625 C-187.66471368 175.32570486 -187.66471368 175.32570486 -191.49609375 173.55078125 C-191.58375 172.86628906 -191.67140625 172.18179688 -191.76171875 171.4765625 C-192.6699507 167.85812775 -194.39707366 164.93675718 -196.24609375 161.73828125 C-209.59391811 137.6996446 -211.27509862 109.49807218 -203.84375 83.3046875 C-201.78886564 77.58079223 -199.06608603 72.26964449 -196.203125 66.9140625 C-194.46763253 63.83703708 -194.46763253 63.83703708 -194.0144043 61.40307617 C-193.84336182 60.79181885 -193.67231934 60.18056152 -193.49609375 59.55078125 C-192.50609375 59.05578125 -192.50609375 59.05578125 -191.49609375 58.55078125 C-191.82609375 57.89078125 -192.15609375 57.23078125 -192.49609375 56.55078125 C-191.01109375 56.05578125 -191.01109375 56.05578125 -189.49609375 55.55078125 C-187.97831978 53.86623921 -187.97831978 53.86623921 -186.49609375 51.73828125 C-177.60907265 40.06715188 -167.94657951 31.35879809 -156.10913086 22.78076172 C-154.36029462 21.50400169 -154.36029462 21.50400169 -152.49609375 19.55078125 C-106.853554 -5.83266775 -50.71264264 -12.62958533 0 0 Z " fill="#FBFBFB" transform="translate(387.49609375,89.44921875)"/>
<path d="M0 0 C20.52842461 -0.67578044 40.87941144 1.70026583 61.00683594 5.64501953 C62.08223633 5.85473389 63.15763672 6.06444824 64.265625 6.28051758 C69.85201443 7.44304834 69.85201443 7.44304834 71.81933594 8.08251953 C72.14933594 8.74251953 72.47933594 9.40251953 72.81933594 10.08251953 C74.81925386 10.41634498 76.81927433 10.74955603 78.81933594 11.08251953 C90.23211296 14.90388312 101.71477319 20.25355605 107.81933594 31.08251953 C111.08441621 49.88073905 103.4062525 71.3780139 98.94433594 89.45751953 C98.73786438 90.30224823 98.53139282 91.14697693 98.31866455 92.01730347 C96.11769758 100.9717066 93.7281221 109.82888601 90.74902344 118.55908203 C90.51627716 119.26076508 90.28353088 119.96244812 90.04373169 120.68539429 C88.63183838 124.66615331 87.20878553 127.49563876 83.81933594 130.08251953 C82.82933594 130.08251953 81.83933594 130.08251953 80.81933594 130.08251953 C80.48933594 131.07251953 80.15933594 132.06251953 79.81933594 133.08251953 C79.48933594 132.09251953 79.15933594 131.10251953 78.81933594 130.08251953 C77.58183594 128.96876953 77.58183594 128.96876953 76.31933594 127.83251953 C71.57417646 122.61284411 72.7561687 115.27897225 72.88183594 108.58251953 C73.0072471 90.25743986 69.95272642 71.65053719 61.81933594 55.08251953 C61.81933594 54.42251953 61.81933594 53.76251953 61.81933594 53.08251953 C61.15933594 52.75251953 60.49933594 52.42251953 59.81933594 52.08251953 C59.06586354 50.77416437 58.36578271 49.43480394 57.69433594 48.08251953 C50.28142597 34.50655069 38.20718208 26.98050971 23.81933594 22.08251953 C-15.46718364 11.25730174 -58.65467293 23.63200132 -93.39160156 42.85986328 C-96.07162942 44.50570622 -98.6257947 46.24816009 -101.18066406 48.08251953 C-101.76058105 48.49163574 -102.34049805 48.90075195 -102.93798828 49.32226562 C-143.33458196 77.96339934 -170.34673082 118.64355371 -182.50341797 166.50878906 C-185.4025303 177.52625201 -185.4025303 177.52625201 -187.18066406 181.08251953 C-186.52066406 181.41251953 -185.86066406 181.74251953 -185.18066406 182.08251953 C-187.16066406 182.41251953 -189.14066406 182.74251953 -191.18066406 183.08251953 C-194.89677937 178.79594792 -197.20983645 174.18796739 -199.53613281 169.07861328 C-201.24899683 165.47462338 -202.73083104 163.15544552 -206.18066406 161.08251953 C-205.93832031 160.54498047 -205.69597656 160.00744141 -205.44628906 159.45361328 C-205.03510282 155.78317141 -206.81460861 154.09655204 -208.93066406 151.14501953 C-209.33099854 150.58524414 -209.73133301 150.02546875 -210.14379883 149.44873047 C-217.47805691 138.42169615 -217.47805691 138.42169615 -227.18066406 130.08251953 C-227.18066406 129.42251953 -227.18066406 128.76251953 -227.18066406 128.08251953 C-227.84066406 128.08251953 -228.50066406 128.08251953 -229.18066406 128.08251953 C-231.18066406 125.08251953 -231.18066406 125.08251953 -231.09472656 122.23095703 C-229.97480156 118.37343758 -228.34355771 116.57963957 -225.55566406 113.70751953 C-224.64558594 112.75232422 -223.73550781 111.79712891 -222.79785156 110.81298828 C-221.93417969 109.91193359 -221.07050781 109.01087891 -220.18066406 108.08251953 C-219.00450949 106.73658532 -217.83659868 105.38335868 -216.68066406 104.02001953 C-212.43939725 99.1511667 -208.00052907 94.38250879 -203.18066406 90.08251953 C-202.52066406 90.08251953 -201.86066406 90.08251953 -201.18066406 90.08251953 C-201.18066406 89.42251953 -201.18066406 88.76251953 -201.18066406 88.08251953 C-199.65229137 86.68652557 -198.05416307 85.36664304 -196.43066406 84.08251953 C-195.41488281 83.27169922 -194.39910156 82.46087891 -193.35253906 81.62548828 C-192.55686523 80.99199463 -192.55686523 80.99199463 -191.74511719 80.34570312 C-189.34890236 78.41093167 -187.02194579 76.39569107 -184.68066406 74.39501953 C-171.07072242 63.09981221 -156.71800009 53.29118261 -141.54931641 44.23632812 C-140.47633301 43.59260254 -139.40334961 42.94887695 -138.29785156 42.28564453 C-137.33476074 41.71491211 -136.37166992 41.14417969 -135.37939453 40.55615234 C-133.06837314 39.26960864 -133.06837314 39.26960864 -132.18066406 37.08251953 C-130.51535302 36.74247831 -128.84837036 36.41061191 -127.18066406 36.08251953 C-125.17019285 35.19128686 -123.18748165 34.23622388 -121.22753906 33.23876953 C-119.4819873 32.36490601 -119.4819873 32.36490601 -117.70117188 31.47338867 C-117.08713501 31.16466827 -116.47309814 30.85594788 -115.8404541 30.53787231 C-94.75879526 19.99198976 -73.09531004 12.68651642 -50.3059082 6.69580078 C-48.15233642 6.144062 -48.15233642 6.144062 -46.18066406 5.08251953 C-44.85612973 4.88913071 -43.52508934 4.73900429 -42.19238281 4.61376953 C-37.98521966 4.18338641 -33.81736033 3.60686774 -29.63574219 2.97827148 C-19.75371524 1.49834117 -9.99197006 0.37811082 0 0 Z " fill="#F9F9F9" transform="translate(634.1806640625,204.91748046875)"/>
<path d="M0 0 C4.38855677 1.72407587 6.91486937 4.82973873 9 9 C10.76085202 28.71576931 4.80152262 48.42591931 0.125 67.375 C-0.08147156 68.2197287 -0.28794312 69.0644574 -0.50067139 69.93478394 C-2.70163835 78.88918707 -5.09121384 87.74636647 -8.0703125 96.4765625 C-8.41943192 97.52908707 -8.41943192 97.52908707 -8.77560425 98.60287476 C-10.18749756 102.58363378 -11.61055041 105.41311923 -15 108 C-15.99 108 -16.98 108 -18 108 C-18.33 108.99 -18.66 109.98 -19 111 C-19.33 110.01 -19.66 109.02 -20 108 C-21.99665314 106.31461399 -21.99665314 106.31461399 -24 105 C-23.505 104.01 -23.505 104.01 -23 103 C-22.34 103.66 -21.68 104.32 -21 105 C-18.04253508 105.58345476 -18.04253508 105.58345476 -15 105 C-1.41387248 87.21711058 1.63174087 52.66594016 5.5 30.9375 C5.66008545 30.04748291 5.8201709 29.15746582 5.98510742 28.24047852 C7.37945624 19.87842718 8.1398654 12.68832146 4 5 C1.94212485 2.15399323 1.94212485 2.15399323 0 0 Z " fill="#C6C7C7" transform="translate(733,227)"/>
<path d="M0 0 C0.99 0.495 0.99 0.495 2 1 C-29.38717602 17.6440745 -64.80979919 26.15441895 -100 18 C-100 17.67 -100 17.34 -100 17 C-98.96383545 17.10393066 -98.96383545 17.10393066 -97.90673828 17.20996094 C-63.9467192 20.35679205 -33.27192909 16.81462147 -2.6328125 1.15234375 C-1.76398438 0.77207031 -0.89515625 0.39179687 0 0 Z " fill="#CCCCCD" transform="translate(595,616)"/>
<path d="M0 0 C4.54518784 0.62954657 8.60465047 1.81889232 12.9375 3.3125 C37.4183348 11.05597462 61.59117705 10.46207554 87 10 C87 10.33 87 10.66 87 11 C75.34670142 12.81862084 63.77804799 13.54561845 52 14 C52 13.34 52 12.68 52 12 C48.7 12.33 45.4 12.66 42 13 C42 12.34 42 11.68 42 11 C40.97519531 10.99613281 40.97519531 10.99613281 39.9296875 10.9921875 C32.1563627 10.69397811 25.10910411 9.17880058 17.625 7.125 C16.68640137 6.86831543 15.74780273 6.61163086 14.78076172 6.34716797 C9.66098268 4.89648793 4.83474172 3.22424757 0 1 C0 0.67 0 0.34 0 0 Z " fill="#CCCCCD" transform="translate(428,664)"/>
<path d="M0 0 C1.05574219 0.10828125 1.05574219 0.10828125 2.1328125 0.21875 C9.0212213 0.86622446 15.79113563 1.0301564 22.70703125 0.96875 C26.87439792 1.00829796 30.87451933 1.43096818 35 2 C35 2.66 35 3.32 35 4 C22.90947536 4.35483061 11.79695291 3.73363874 0 1 C0 0.67 0 0.34 0 0 Z " fill="#D4D5D5" transform="translate(495,633)"/>
<path d="M0 0 C0.66 0.33 1.32 0.66 2 1 C-6.2095968 10.5344885 -6.2095968 10.5344885 -10 14 C-10.66 14 -11.32 14 -12 14 C-12.268125 14.598125 -12.53625 15.19625 -12.8125 15.8125 C-13.98493467 17.97224808 -15.19369282 19.35790256 -17 21 C-15.61385307 16.86367859 -13.70847687 14.24739092 -10.75 11.0625 C-9.95207031 10.20011719 -9.15414062 9.33773438 -8.33203125 8.44921875 C-5.6008637 5.5808066 -2.83672155 2.7639851 0 0 Z " fill="#D5D5D6" transform="translate(82,405)"/>
<path d="M0 0 C6.99507119 5.32233678 11.82676065 11.98437963 17 19 C16.67 19.66 16.34 20.32 16 21 C14.02 18.36 12.04 15.72 10 13 C8.68 13.33 7.36 13.66 6 14 C6.23589844 13.42507813 6.47179687 12.85015625 6.71484375 12.2578125 C7.2685166 9.89543532 7.2685166 9.89543532 5.56640625 7.9296875 C4.90511719 7.25164062 4.24382812 6.57359375 3.5625 5.875 C0 2.18003914 0 2.18003914 0 0 Z " fill="#D8D8D8" transform="translate(358,399)"/>
<path d="M0 0 C0.33 0 0.66 0 1 0 C1.25394531 1.25296875 1.50789063 2.5059375 1.76953125 3.796875 C2.11664905 5.44802995 2.46433514 7.09906551 2.8125 8.75 C2.97814453 9.575 3.14378906 10.4 3.31445312 11.25 C4.23458513 15.55552334 5.0225187 18.62153984 8 22 C8 22.66 8 23.32 8 24 C5.45640789 23.01927479 4.24727113 22.48594982 2.98828125 20.01171875 C2.76527344 19.24472656 2.54226563 18.47773437 2.3125 17.6875 C2.0753125 16.87796875 1.838125 16.0684375 1.59375 15.234375 C1.3978125 14.49703125 1.201875 13.7596875 1 13 C0.773125 12.154375 0.54625 11.30875 0.3125 10.4375 C-0.13582486 6.94056606 -0.05974047 3.52468776 0 0 Z " fill="#D0D0D1" transform="translate(394,502)"/>
<path d="M0 0 C2.31 0 4.62 0 7 0 C7.28875 0.61875 7.5775 1.2375 7.875 1.875 C8.93720042 4.13325765 8.93720042 4.13325765 11 6 C11.625 8.125 11.625 8.125 12 10 C9.66666667 7.66666667 7.33333333 5.33333333 5 3 C2.41645782 2.83312552 2.41645782 2.83312552 0 3 C0 2.01 0 1.02 0 0 Z " fill="#DBDBDB" transform="translate(352,408)"/>
<path d="M0 0 C1.485 0.99 1.485 0.99 3 2 C4.98799818 2.70164642 6.98698517 3.37372872 9 4 C8.01 4.33 7.02 4.66 6 5 C5.67 5.99 5.34 6.98 5 8 C4.67 7.01 4.34 6.02 4 5 C2.67151309 3.99357052 1.33849671 2.99307821 0 2 C0 1.34 0 0.68 0 0 Z " fill="#CBCBCC" transform="translate(709,330)"/>
<path d="M0 0 C3.82097239 0.53069061 6.06171403 1.49701566 9 4 C2.25 3.125 2.25 3.125 0 2 C0 1.34 0 0.68 0 0 Z " fill="#FAFAF9" transform="translate(370,110)"/>
<path d="M0 0 C3.3 0.33 6.6 0.66 10 1 C10 1.33 10 1.66 10 2 C3.9453125 2.1953125 3.9453125 2.1953125 2 2 C1.34 1.34 0.68 0.68 0 0 Z " fill="#F1F0F0" transform="translate(169,591)"/>
<path d="M0 0 C0.66 0 1.32 0 2 0 C2 2.97 2 5.94 2 9 C1.34 8.67 0.68 8.34 0 8 C0 5.36 0 2.72 0 0 Z " fill="#FBFCFB" transform="translate(331,538)"/>
<path d="M0 0 C0.66 0.66 1.32 1.32 2 2 C-1 4 -1 4 -4 4 C-3.67 3.01 -3.34 2.02 -3 1 C-2.34 1 -1.68 1 -1 1 C-0.67 0.67 -0.34 0.34 0 0 Z " fill="#FBFBFA" transform="translate(486,250)"/>
<path d="M0 0 C2.31 0 4.62 0 7 0 C6.34 0.66 5.68 1.32 5 2 C2.375 1.625 2.375 1.625 0 1 C0 0.67 0 0.34 0 0 Z " fill="#F8F8F8" transform="translate(637,224)"/>
<path d="M0 0 C0.66 0 1.32 0 2 0 C2.33 2.31 2.66 4.62 3 7 C0.64046906 4.64046906 0.50858587 3.22104383 0 0 Z " fill="#F5F6F6" transform="translate(700,275)"/>
<path d="M0 0 C1.65 0 3.3 0 5 0 C4.34 0.66 3.68 1.32 3 2 C2.01 2 1.02 2 0 2 C0 1.34 0 0.68 0 0 Z " fill="#D6D7D7" transform="translate(716,336)"/>
<path d="M0 0 C0.33 0 0.66 0 1 0 C1 2.31 1 4.62 1 7 C0.67 7 0.34 7 0 7 C0 4.69 0 2.38 0 0 Z " fill="#F5F5F5" transform="translate(50,475)"/>
<path d="M0 0 C0.66 0.66 1.32 1.32 2 2 C0.68 2 -0.64 2 -2 2 C-1.34 1.34 -0.68 0.68 0 0 Z " fill="#F8F8F8" transform="translate(543,247)"/>
<path d="M0 0 C0.99 0.99 1.98 1.98 3 3 C1.68 2.67 0.36 2.34 -1 2 C-0.67 1.34 -0.34 0.68 0 0 Z " fill="#F9F9F8" transform="translate(684,244)"/>
<path d="M0 0 C2.31 0 4.62 0 7 0 C7 0.33 7 0.66 7 1 C4.69 1 2.38 1 0 1 C0 0.67 0 0.34 0 0 Z " fill="#F9F8F8" transform="translate(625,223)"/>
<path d="M0 0 C1.32 0.66 2.64 1.32 4 2 C2.35 2 0.7 2 -1 2 C-0.67 1.34 -0.34 0.68 0 0 Z " fill="#FBFBFA" transform="translate(254,120)"/>
<path d="M0 0 C1.98 0 3.96 0 6 0 C6 0.33 6 0.66 6 1 C4.02 1 2.04 1 0 1 C0 0.67 0 0.34 0 0 Z " fill="#F4F4F3" transform="translate(472,677)"/>
<path d="M0 0 C1.65 0 3.3 0 5 0 C3.02 0.99 3.02 0.99 1 2 C0.67 1.34 0.34 0.68 0 0 Z " fill="#F2F2F1" transform="translate(106,567)"/>
<path d="M0 0 C1.485 0.99 1.485 0.99 3 2 C1.68 2.33 0.36 2.66 -1 3 C-0.67 2.01 -0.34 1.02 0 0 Z " fill="#FBFBFB" transform="translate(324,555)"/>
<path d="M0 0 C0.33 0.99 0.66 1.98 1 3 C0.01 3.495 0.01 3.495 -1 4 C-0.67 2.68 -0.34 1.36 0 0 Z " fill="#FBFBFB" transform="translate(333,547)"/>
<path d="M0 0 C0.99 0.495 0.99 0.495 2 1 C1.67 1.99 1.34 2.98 1 4 C0.67 2.68 0.34 1.36 0 0 Z " fill="#FCFAFB" transform="translate(424,365)"/>
<path d="M0 0 C0.99 0.33 1.98 0.66 3 1 C2.34 1.66 1.68 2.32 1 3 C0.67 2.01 0.34 1.02 0 0 Z " fill="#F8F9F9" transform="translate(282,343)"/>
<path d="M0 0 C0.33 0 0.66 0 1 0 C1 1.98 1 3.96 1 6 C0.67 6 0.34 6 0 6 C0 4.02 0 2.04 0 0 Z " fill="#ECECEC" transform="translate(706,308)"/>
<path d="M0 0 C0.66 0.66 1.32 1.32 2 2 C1.01 2.33 0.02 2.66 -1 3 C-0.67 2.01 -0.34 1.02 0 0 Z " fill="#FAF9F9" transform="translate(503,279)"/>
<path d="M0 0 C0.66 0 1.32 0 2 0 C1.67 0.99 1.34 1.98 1 3 C0.34 2.34 -0.32 1.68 -1 1 C-0.67 0.67 -0.34 0.34 0 0 Z " fill="#F9F8F9" transform="translate(510,271)"/>
<path d="M0 0 C0.99 0.495 0.99 0.495 2 1 C1.67 1.99 1.34 2.98 1 4 C0.67 2.68 0.34 1.36 0 0 Z " fill="#F9F8F8" transform="translate(348,597)"/>
<path d="M0 0 C0 0.99 0 1.98 0 3 C-0.66 2.34 -1.32 1.68 -2 1 C-1.34 0.67 -0.68 0.34 0 0 Z " fill="#F7F7F6" transform="translate(303,583)"/>
<path d="M0 0 C1.65 0 3.3 0 5 0 C5 0.33 5 0.66 5 1 C3.35 1 1.7 1 0 1 C0 0.67 0 0.34 0 0 Z " fill="#F7F7F7" transform="translate(250,575)"/>
<path d="M0 0 C0 0.99 0 1.98 0 3 C-0.66 2.67 -1.32 2.34 -2 2 C-1.34 1.34 -0.68 0.68 0 0 Z " fill="#F5F6F5" transform="translate(660,555)"/>
<path d="M0 0 C0.33 0 0.66 0 1 0 C1 1.65 1 3.3 1 5 C0.67 5 0.34 5 0 5 C0 3.35 0 1.7 0 0 Z " fill="#FAF9F9" transform="translate(330,497)"/>
<path d="M0 0 C0.33 0 0.66 0 1 0 C1 1.65 1 3.3 1 5 C0.67 5 0.34 5 0 5 C0 3.35 0 1.7 0 0 Z " fill="#F0F1F1" transform="translate(52,492)"/>
<path d="M0 0 C0.33 0 0.66 0 1 0 C1 1.65 1 3.3 1 5 C0.67 5 0.34 5 0 5 C0 3.35 0 1.7 0 0 Z " fill="#F5F5F5" transform="translate(50,469)"/>
<path d="M0 0 C0.33 0 0.66 0 1 0 C1 1.65 1 3.3 1 5 C0.67 5 0.34 5 0 5 C0 3.35 0 1.7 0 0 Z " fill="#F2F3F4" transform="translate(50,461)"/>
<path d="M0 0 C0 0.99 0 1.98 0 3 C-0.66 2.67 -1.32 2.34 -2 2 C-1.34 1.34 -0.68 0.68 0 0 Z " fill="#F3F2F3" transform="translate(61,427)"/>
<path d="M0 0 C0.99 0 1.98 0 3 0 C2.67 0.66 2.34 1.32 2 2 C1.34 2 0.68 2 0 2 C0 1.34 0 0.68 0 0 Z " fill="#FBFAFA" transform="translate(419,299)"/>
<path d="M0 0 C1.65 0 3.3 0 5 0 C5 0.33 5 0.66 5 1 C3.35 1 1.7 1 0 1 C0 0.67 0 0.34 0 0 Z " fill="#F4F4F4" transform="translate(636,203)"/>
<path d="M0 0 C0.99 0.33 1.98 0.66 3 1 C2.67 1.66 2.34 2.32 2 3 C1.34 2.01 0.68 1.02 0 0 Z " fill="#FAF8F9" transform="translate(381,116)"/>
<path d="M0 0 C1.65 0 3.3 0 5 0 C5 0.33 5 0.66 5 1 C3.35 1 1.7 1 0 1 C0 0.67 0 0.34 0 0 Z " fill="#F9F9F8" transform="translate(301,101)"/>
<path d="M0 0 C0.99 0 1.98 0 3 0 C2.67 0.66 2.34 1.32 2 2 C1.34 1.34 0.68 0.68 0 0 Z " fill="#F2F2F3" transform="translate(445,672)"/>
<path d="M0 0 C0.99 0.33 1.98 0.66 3 1 C2.01 1.33 1.02 1.66 0 2 C0 1.34 0 0.68 0 0 Z " fill="#F2F3F1" transform="translate(558,664)"/>
<path d="M0 0 C0.99 0.33 1.98 0.66 3 1 C2.01 1 1.02 1 0 1 C0 0.67 0 0.34 0 0 Z " fill="#F8F8F7" transform="translate(622,594)"/>
<path d="M0 0 C4 1 4 1 4 1 Z " fill="#F6F5F4" transform="translate(267,592)"/>
<path d="M0 0 C1 4 1 4 1 4 Z " fill="#FCFBFB" transform="translate(388,499)"/>
<path d="M0 0 C0.99 0.495 0.99 0.495 2 1 C1.67 1.66 1.34 2.32 1 3 C0.67 2.01 0.34 1.02 0 0 Z " fill="#FBFAFB" transform="translate(390,495)"/>
<path d="M0 0 C1 4 1 4 1 4 Z " fill="#EFF1F0" transform="translate(51,487)"/>
<path d="M0 0 C0.66 0.66 1.32 1.32 2 2 C1.01 2.495 1.01 2.495 0 3 C0 2.01 0 1.02 0 0 Z " fill="#F5F6F6" transform="translate(438,471)"/>
<path d="M0 0 C1 4 1 4 1 4 Z " fill="#FDFCFC" transform="translate(388,462)"/>
<path d="M0 0 C0.99 1.485 0.99 1.485 2 3 C1.34 3 0.68 3 0 3 C0 2.01 0 1.02 0 0 Z " fill="#FEFCFD" transform="translate(382,450)"/>
<path d="M0 0 C0.66 0.66 1.32 1.32 2 2 C1.01 2.495 1.01 2.495 0 3 C0 2.01 0 1.02 0 0 Z " fill="#FAF9F9" transform="translate(433,382)"/>
<path d="M0 0 C4 1 4 1 4 1 Z " fill="#F3F3F2" transform="translate(156,374)"/>
<path d="M0 0 C0.99 0.33 1.98 0.66 3 1 C2.01 1 1.02 1 0 1 C0 0.67 0 0.34 0 0 Z " fill="#F8F9F8" transform="translate(243,311)"/>
<path d="M0 0 C0.66 0.66 1.32 1.32 2 2 C1.01 2.495 1.01 2.495 0 3 C0 2.01 0 1.02 0 0 Z " fill="#F7F8F8" transform="translate(231,300)"/>
<path d="M0 0 C0.99 1.485 0.99 1.485 2 3 C1.34 3 0.68 3 0 3 C0 2.01 0 1.02 0 0 Z " fill="#F5F6F6" transform="translate(202,269)"/>
<path d="M0 0 C1 4 1 4 1 4 Z " fill="#EEF0EE" transform="translate(742,254)"/>
<path d="M0 0 C1.485 0.99 1.485 0.99 3 2 C2.01 2 1.02 2 0 2 C0 1.34 0 0.68 0 0 Z " fill="#FAF9FA" transform="translate(660,228)"/>
<path d="M0 0 C0.66 0.66 1.32 1.32 2 2 C1.01 1.67 0.02 1.34 -1 1 C-0.67 0.67 -0.34 0.34 0 0 Z " fill="#F8F8F8" transform="translate(623,223)"/>
<path d="M0 0 C0.99 0.33 1.98 0.66 3 1 C2.01 1 1.02 1 0 1 C0 0.67 0 0.34 0 0 Z " fill="#EEEFEE" transform="translate(726,220)"/>
<path d="M0 0 C4 1 4 1 4 1 Z " fill="#F0F1F2" transform="translate(659,204)"/>
<path d="M0 0 C0.66 0.33 1.32 0.66 2 1 C1.01 1 0.02 1 -1 1 C-0.67 0.67 -0.34 0.34 0 0 Z " fill="#FBFBFC" transform="translate(240,141)"/>
<path d="M0 0 C0.99 0.495 0.99 0.495 2 1 C1.67 1.66 1.34 2.32 1 3 C0.67 2.01 0.34 1.02 0 0 Z " fill="#FAFAF9" transform="translate(247,127)"/>
<path d="M0 0 C0.99 0.33 1.98 0.66 3 1 C2.01 1.33 1.02 1.66 0 2 C0 1.34 0 0.68 0 0 Z " fill="#F8F9F8" transform="translate(295,102)"/>
<path d="M0 0 C0.66 0.66 1.32 1.32 2 2 C1.01 1.67 0.02 1.34 -1 1 C-0.67 0.67 -0.34 0.34 0 0 Z " fill="#F2F4F4" transform="translate(364,83)"/>
<path d="M0 0 C3 1 3 1 3 1 Z " fill="#F3F2F1" transform="translate(504,677)"/>
<path d="M0 0 C3 1 3 1 3 1 Z " fill="#F2F2F2" transform="translate(541,670)"/>
<path d="M0 0 C3 1 3 1 3 1 Z " fill="#F2F2F3" transform="translate(418,663)"/>
<path d="M0 0 C0.66 0.66 1.32 1.32 2 2 C1.34 2 0.68 2 0 2 C0 1.34 0 0.68 0 0 Z " fill="#F3F2F2" transform="translate(590,648)"/>
<path d="M0 0 C0.99 0.495 0.99 0.495 2 1 C1.01 1.495 1.01 1.495 0 2 C0 1.34 0 0.68 0 0 Z " fill="#F4F5F4" transform="translate(379,637)"/>
<path d="M0 0 C0.66 0.66 1.32 1.32 2 2 C1.34 2 0.68 2 0 2 C0 1.34 0 0.68 0 0 Z " fill="#F3F4F4" transform="translate(374,631)"/>
<path d="M0 0 C0.33 0.66 0.66 1.32 1 2 C0.34 1.67 -0.32 1.34 -1 1 C-0.67 0.67 -0.34 0.34 0 0 Z " fill="#F2F3F2" transform="translate(615,631)"/>
<path d="M0 0 C3 1 3 1 3 1 Z " fill="#F4F3F3" transform="translate(261,593)"/>
<path d="M0 0 C3 1 3 1 3 1 Z " fill="#F5F5F5" transform="translate(274,591)"/>
<path d="" fill="#F0F0F0" transform="translate(0,0)"/>
<path d="M0 0 C0.99 0.495 0.99 0.495 2 1 C1.01 1.495 1.01 1.495 0 2 C0 1.34 0 0.68 0 0 Z " fill="#F0EFF1" transform="translate(122,574)"/>
<path d="" fill="#FCFBFB" transform="translate(0,0)"/>
<path d="" fill="#FAFAFA" transform="translate(0,0)"/>
<path d="" fill="#F9FBFB" transform="translate(0,0)"/>
<path d="M0 0 C0.66 0.66 1.32 1.32 2 2 C1.34 2 0.68 2 0 2 C0 1.34 0 0.68 0 0 Z " fill="#EFEEEE" transform="translate(54,504)"/>
<path d="M0 0 C0.33 0.66 0.66 1.32 1 2 C0.34 1.67 -0.32 1.34 -1 1 C-0.67 0.67 -0.34 0.34 0 0 Z " fill="#F9FAF9" transform="translate(332,474)"/>
<path d="" fill="#FAFAFA" transform="translate(0,0)"/>
<path d="M0 0 C0.33 0.66 0.66 1.32 1 2 C0.34 1.67 -0.32 1.34 -1 1 C-0.67 0.67 -0.34 0.34 0 0 Z " fill="#FAFAFA" transform="translate(389,470)"/>
<path d="M0 0 C0.33 0.66 0.66 1.32 1 2 C0.34 1.67 -0.32 1.34 -1 1 C-0.67 0.67 -0.34 0.34 0 0 Z " fill="#FCFCFB" transform="translate(384,457)"/>
<path d="M0 0 C0.33 0.66 0.66 1.32 1 2 C0.34 1.67 -0.32 1.34 -1 1 C-0.67 0.67 -0.34 0.34 0 0 Z " fill="#F3F4F3" transform="translate(52,450)"/>
<path d="M0 0 C0.66 0.66 1.32 1.32 2 2 C1.34 2 0.68 2 0 2 C0 1.34 0 0.68 0 0 Z " fill="#FBFBFA" transform="translate(379,442)"/>
<path d="M0 0 C3 1 3 1 3 1 Z " fill="#FCFCFB" transform="translate(379,437)"/>
<path d="M0 0 C0.66 0 1.32 0 2 0 C1.67 0.66 1.34 1.32 1 2 C0.67 1.34 0.34 0.68 0 0 Z " fill="#FBFAFB" transform="translate(372,420)"/>
<path d="" fill="#F1F0F1" transform="translate(0,0)"/>
<path d="M0 0 C0.33 0.66 0.66 1.32 1 2 C0.34 1.67 -0.32 1.34 -1 1 C-0.67 0.67 -0.34 0.34 0 0 Z " fill="#FAFCFB" transform="translate(371,418)"/>
<path d="M0 0 C3 1 3 1 3 1 Z " fill="#FAFAFA" transform="translate(338,385)"/>
<path d="" fill="#FAFBFA" transform="translate(0,0)"/>
<path d="M0 0 C0.99 0.495 0.99 0.495 2 1 C1.01 1.495 1.01 1.495 0 2 C0 1.34 0 0.68 0 0 Z " fill="#FAFBF9" transform="translate(315,366)"/>
<path d="" fill="#F4F4F4" transform="translate(0,0)"/>
<path d="M0 0 C0.66 0.66 1.32 1.32 2 2 C1.34 2 0.68 2 0 2 C0 1.34 0 0.68 0 0 Z " fill="#F6F8F7" transform="translate(298,352)"/>
<path d="" fill="#FBFBFB" transform="translate(0,0)"/>
<path d="M0 0 C0.66 0.66 1.32 1.32 2 2 C1.34 2 0.68 2 0 2 C0 1.34 0 0.68 0 0 Z " fill="#FCFCFA" transform="translate(404,333)"/>
<path d="M0 0 C0.99 0.495 0.99 0.495 2 1 C1.01 1.495 1.01 1.495 0 2 C0 1.34 0 0.68 0 0 Z " fill="#F8F8F8" transform="translate(478,312)"/>
<path d="M0 0 C0.99 0.495 0.99 0.495 2 1 C1.01 1.495 1.01 1.495 0 2 C0 1.34 0 0.68 0 0 Z " fill="#FBFAFA" transform="translate(438,286)"/>
<path d="" fill="#F1F1F2" transform="translate(0,0)"/>
<path d="" fill="#E7E7E6" transform="translate(0,0)"/>
<path d="M0 0 C0.66 0 1.32 0 2 0 C1.67 0.66 1.34 1.32 1 2 C0.67 1.34 0.34 0.68 0 0 Z " fill="#F9FAF9" transform="translate(675,236)"/>
<path d="M0 0 C3 1 3 1 3 1 Z " fill="#F6F6F6" transform="translate(606,225)"/>
<path d="M0 0 C3 1 3 1 3 1 Z " fill="#F9F9FA" transform="translate(613,224)"/>
<path d="M0 0 C0.66 0 1.32 0 2 0 C1.67 0.66 1.34 1.32 1 2 C0.67 1.34 0.34 0.68 0 0 Z " fill="#F9F9F9" transform="translate(634,223)"/>
<path d="M0 0 C3 1 3 1 3 1 Z " fill="#F6F6F6" transform="translate(555,218)"/>
<path d="M0 0 C3 1 3 1 3 1 Z " fill="#F5F5F5" transform="translate(570,213)"/>
<path d="" fill="#F4F5F5" transform="translate(0,0)"/>
<path d="M0 0 C3 1 3 1 3 1 Z " fill="#F6F6F5" transform="translate(580,211)"/>
<path d="M0 0 C0.33 0.66 0.66 1.32 1 2 C0.34 1.67 -0.32 1.34 -1 1 C-0.67 0.67 -0.34 0.34 0 0 Z " fill="#F1F2F3" transform="translate(620,203)"/>
<path d="M0 0 C0.66 0 1.32 0 2 0 C1.67 0.66 1.34 1.32 1 2 C0.67 1.34 0.34 0.68 0 0 Z " fill="#FAFBF9" transform="translate(269,111)"/>
<path d="M0 0 C3 1 3 1 3 1 Z " fill="#F4F4F3" transform="translate(370,85)"/>
<path d="M0 0 C3 1 3 1 3 1 Z " fill="#F5F4F5" transform="translate(298,85)"/>
<path d="M0 0 C3 1 3 1 3 1 Z " fill="#F3F3F4" transform="translate(356,83)"/>
<path d="M0 0 C3 1 3 1 3 1 Z " fill="#F1F1F0" transform="translate(335,82)"/>
<path d="M0 0 C2 1 2 1 2 1 Z " fill="#F0F0F1" transform="translate(505,679)"/>
<path d="" fill="#F2F2F1" transform="translate(0,0)"/>
<path d="M0 0 C2 1 2 1 2 1 Z " fill="#F1F0F0" transform="translate(439,672)"/>
<path d="M0 0 C2 1 2 1 2 1 Z " fill="#F2F3F3" transform="translate(538,671)"/>
<path d="M0 0 C2 1 2 1 2 1 Z " fill="#F1F2EF" transform="translate(544,669)"/>
<path d="M0 0 C2 1 2 1 2 1 Z " fill="#F2F1F3" transform="translate(387,645)"/>
<path d="M0 0 C2 1 2 1 2 1 Z " fill="#F2F2F0" transform="translate(601,641)"/>
<path d="" fill="#F0F2F1" transform="translate(0,0)"/>
<path d="M0 0 C2 1 2 1 2 1 Z " fill="#F9F9FA" transform="translate(487,629)"/>
<path d="M0 0 C2 1 2 1 2 1 Z " fill="#F8FAFA" transform="translate(567,626)"/>
<path d="" fill="#FBFAFA" transform="translate(0,0)"/>
<path d="" fill="#F9F9F8" transform="translate(0,0)"/>
<path d="M0 0 C2 1 2 1 2 1 Z " fill="#F9F9F9" transform="translate(582,620)"/>
<path d="M0 0 C2 1 2 1 2 1 Z " fill="#F8FAF8" transform="translate(587,618)"/>
<path d="M0 0 C2 1 2 1 2 1 Z " fill="#FAF9FA" transform="translate(440,605)"/>
<path d="" fill="#F8FAFA" transform="translate(0,0)"/>
<path d="M0 0 C2 1 2 1 2 1 Z " fill="#F1F1F2" transform="translate(184,593)"/>
<path d="" fill="#F9F9F7" transform="translate(0,0)"/>
<path d="M0 0 C2 1 2 1 2 1 Z " fill="#F4F3F3" transform="translate(150,585)"/>
<path d="" fill="#F8F8F9" transform="translate(0,0)"/>
<path d="M0 0 C2 1 2 1 2 1 Z " fill="#F1F1F2" transform="translate(143,583)"/>
<path d="" fill="#F8F8F9" transform="translate(0,0)"/>
<path d="" fill="#FDFCFC" transform="translate(0,0)"/>
<path d="M0 0 C2 1 2 1 2 1 Z " fill="#F8F8FA" transform="translate(206,574)"/>
<path d="M0 0 C2 1 2 1 2 1 Z " fill="#F9FAF9" transform="translate(202,573)"/>
<path d="" fill="#F8F9F8" transform="translate(0,0)"/>
<path d="M0 0 C2 1 2 1 2 1 Z " fill="#F9FAF9" transform="translate(283,570)"/>
<path d="M0 0 C2 1 2 1 2 1 Z " fill="#F8F9F9" transform="translate(174,566)"/>
<path d="M0 0 C2 1 2 1 2 1 Z " fill="#F9F9F8" transform="translate(302,565)"/>
<path d="M0 0 C2 1 2 1 2 1 Z " fill="#F9FAFA" transform="translate(310,562)"/>
<path d="" fill="#EFEEED" transform="translate(0,0)"/>
<path d="M0 0 C2 1 2 1 2 1 Z " fill="#FBFAFA" transform="translate(327,555)"/>
<path d="M0 0 C2 1 2 1 2 1 Z " fill="#E9E8E9" transform="translate(685,552)"/>
<path d="" fill="#EAEAEA" transform="translate(0,0)"/>
<path d="" fill="#FCFDFC" transform="translate(0,0)"/>
<path d="M0 0 C2 1 2 1 2 1 Z " fill="#EFF0F1" transform="translate(77,544)"/>
<path d="" fill="#FBFCFC" transform="translate(0,0)"/>
<path d="" fill="#F0EFF0" transform="translate(0,0)"/>
<path d="M0 0 C2 1 2 1 2 1 Z " fill="#DDDFDE" transform="translate(684,523)"/>
<path d="" fill="#FBF9FB" transform="translate(0,0)"/>
<path d="" fill="#F3F1F3" transform="translate(0,0)"/>
<path d="" fill="#F8F9F8" transform="translate(0,0)"/>
<path d="" fill="#F0F1F0" transform="translate(0,0)"/>
<path d="" fill="#F7F6F7" transform="translate(0,0)"/>
<path d="" fill="#FBFBFB" transform="translate(0,0)"/>
<path d="" fill="#FCFAFB" transform="translate(0,0)"/>
<path d="" fill="#F6F6F7" transform="translate(0,0)"/>
<path d="" fill="#FCFDFD" transform="translate(0,0)"/>
<path d="" fill="#FDFCFD" transform="translate(0,0)"/>
<path d="" fill="#FDFCFC" transform="translate(0,0)"/>
<path d="" fill="#FCFDFB" transform="translate(0,0)"/>
<path d="" fill="#F3F4F5" transform="translate(0,0)"/>
<path d="M0 0 C2 1 2 1 2 1 Z " fill="#FAFCFB" transform="translate(374,424)"/>
<path d="" fill="#FDFCFC" transform="translate(0,0)"/>
<path d="M0 0 C2 1 2 1 2 1 Z " fill="#F7F9F9" transform="translate(133,416)"/>
<path d="M0 0 C2 1 2 1 2 1 Z " fill="#FAF9F9" transform="translate(355,406)"/>
<path d="M0 0 C2 1 2 1 2 1 Z " fill="#F9FAFA" transform="translate(141,406)"/>
<path d="" fill="#F7F8F8" transform="translate(0,0)"/>
<path d="M0 0 C2 1 2 1 2 1 Z " fill="#FAFAF9" transform="translate(360,405)"/>
<path d="M0 0 C2 1 2 1 2 1 Z " fill="#F2F2F3" transform="translate(83,402)"/>
<path d="M0 0 C2 1 2 1 2 1 Z " fill="#F9F9F9" transform="translate(150,400)"/>
<path d="M0 0 C2 1 2 1 2 1 Z " fill="#F5F4F4" transform="translate(163,393)"/>
<path d="" fill="#F5F5F5" transform="translate(0,0)"/>
<path d="M0 0 C2 1 2 1 2 1 Z " fill="#F7F7F7" transform="translate(109,387)"/>
<path d="" fill="#F1F1F2" transform="translate(0,0)"/>
<path d="M0 0 C2 1 2 1 2 1 Z " fill="#F2F3F3" transform="translate(135,378)"/>
<path d="M0 0 C2 1 2 1 2 1 Z " fill="#F7F8F7" transform="translate(330,377)"/>
<path d="" fill="#FDFAFA" transform="translate(0,0)"/>
<path d="" fill="#FAFBFB" transform="translate(0,0)"/>
<path d="" fill="#FAFBFD" transform="translate(0,0)"/>
<path d="M0 0 C2 1 2 1 2 1 Z " fill="#FAF9F9" transform="translate(306,359)"/>
<path d="" fill="#FEFDFD" transform="translate(0,0)"/>
<path d="M0 0 C2 1 2 1 2 1 Z " fill="#F9F9F9" transform="translate(302,356)"/>
<path d="" fill="#FBFCFB" transform="translate(0,0)"/>
<path d="" fill="#F9F8F8" transform="translate(0,0)"/>
<path d="" fill="#F9F9F8" transform="translate(0,0)"/>
<path d="" fill="#F7F7F6" transform="translate(0,0)"/>
<path d="M0 0 C2 1 2 1 2 1 Z " fill="#F9F9F9" transform="translate(260,325)"/>
<path d="" fill="#F8F8F8" transform="translate(0,0)"/>
<path d="" fill="#F6F8F8" transform="translate(0,0)"/>
<path d="" fill="#F8F8F8" transform="translate(0,0)"/>
<path d="" fill="#F3F5F3" transform="translate(0,0)"/>
<path d="" fill="#ECEDED" transform="translate(0,0)"/>
<path d="" fill="#F8F8F9" transform="translate(0,0)"/>
<path d="M0 0 C2 1 2 1 2 1 Z " fill="#FBFCFA" transform="translate(518,264)"/>
<path d="M0 0 C2 1 2 1 2 1 Z " fill="#FAFAFB" transform="translate(475,258)"/>
<path d="" fill="#F8F8F8" transform="translate(0,0)"/>
<path d="" fill="#F8F8F8" transform="translate(0,0)"/>
<path d="" fill="#FAFAF9" transform="translate(0,0)"/>
<path d="" fill="#E8EBEB" transform="translate(0,0)"/>
<path d="M0 0 C2 1 2 1 2 1 Z " fill="#E9E8E9" transform="translate(743,240)"/>
<path d="" fill="#F9F9F8" transform="translate(0,0)"/>
<path d="M0 0 C2 1 2 1 2 1 Z " fill="#FCFCFC" transform="translate(270,238)"/>
<path d="M0 0 C2 1 2 1 2 1 Z " fill="#F7F8F8" transform="translate(514,235)"/>
<path d="M0 0 C2 1 2 1 2 1 Z " fill="#F9F8F7" transform="translate(574,233)"/>
<path d="" fill="#F3F4F4" transform="translate(0,0)"/>
<path d="M0 0 C2 1 2 1 2 1 Z " fill="#F6F8F6" transform="translate(577,232)"/>
<path d="M0 0 C2 1 2 1 2 1 Z " fill="#FAF9F8" transform="translate(665,231)"/>
<path d="M0 0 C2 1 2 1 2 1 Z " fill="#F8F8F7" transform="translate(584,230)"/>
<path d="M0 0 C2 1 2 1 2 1 Z " fill="#F6F7F7" transform="translate(592,228)"/>
<path d="M0 0 C2 1 2 1 2 1 Z " fill="#F9F8F7" transform="translate(645,225)"/>
<path d="M0 0 C2 1 2 1 2 1 Z " fill="#F7F7F7" transform="translate(547,221)"/>
<path d="" fill="#F7F6F6" transform="translate(0,0)"/>
<path d="M0 0 C2 1 2 1 2 1 Z " fill="#F5F5F4" transform="translate(720,218)"/>
<path d="M0 0 C2 1 2 1 2 1 Z " fill="#F2F1F2" transform="translate(710,214)"/>
<path d="" fill="#F9F8F8" transform="translate(0,0)"/>
<path d="M0 0 C2 1 2 1 2 1 Z " fill="#F3F5F4" transform="translate(704,212)"/>
<path d="M0 0 C2 1 2 1 2 1 Z " fill="#F5F7F5" transform="translate(576,212)"/>
<path d="M0 0 C2 1 2 1 2 1 Z " fill="#F3F2F1" transform="translate(702,211)"/>
<path d="" fill="#F9F8F8" transform="translate(0,0)"/>
<path d="M0 0 C2 1 2 1 2 1 Z " fill="#F2F3F2" transform="translate(696,210)"/>
<path d="M0 0 C2 1 2 1 2 1 Z " fill="#F2F2F2" transform="translate(678,206)"/>
<path d="M0 0 C2 1 2 1 2 1 Z " fill="#F3F5F4" transform="translate(610,205)"/>
<path d="M0 0 C2 1 2 1 2 1 Z " fill="#F1F1F2" transform="translate(644,203)"/>
<path d="" fill="#FBF9F9" transform="translate(0,0)"/>
<path d="" fill="#FDFCFC" transform="translate(0,0)"/>
<path d="" fill="#FDFDFD" transform="translate(0,0)"/>
<path d="M0 0 C2 1 2 1 2 1 Z " fill="#F8F8F8" transform="translate(446,185)"/>
<path d="" fill="#F3F3F2" transform="translate(0,0)"/>
<path d="" fill="#FCFCFC" transform="translate(0,0)"/>
<path d="" fill="#F9F9F9" transform="translate(0,0)"/>
<path d="" fill="#FAFBFA" transform="translate(0,0)"/>
<path d="" fill="#FBFDFD" transform="translate(0,0)"/>
<path d="" fill="#F1F2F1" transform="translate(0,0)"/>
<path d="M0 0 C2 1 2 1 2 1 Z " fill="#F3F2F3" transform="translate(446,129)"/>
<path d="" fill="#F9F9FA" transform="translate(0,0)"/>
<path d="M0 0 C2 1 2 1 2 1 Z " fill="#F0F0F1" transform="translate(439,118)"/>
<path d="M0 0 C2 1 2 1 2 1 Z " fill="#F9FAF8" transform="translate(264,113)"/>
<path d="" fill="#F7F8F8" transform="translate(0,0)"/>
<path d="M0 0 C2 1 2 1 2 1 Z " fill="#FAF9FA" transform="translate(357,104)"/>
<path d="" fill="#F1F2F1" transform="translate(0,0)"/>
<path d="M0 0 C2 1 2 1 2 1 Z " fill="#F2F2F2" transform="translate(418,100)"/>
<path d="M0 0 C2 1 2 1 2 1 Z " fill="#F0F0F0" transform="translate(420,99)"/>
<path d="M0 0 C2 1 2 1 2 1 Z " fill="#EFF0F0" transform="translate(406,94)"/>
<path d="M0 0 C2 1 2 1 2 1 Z " fill="#F3F4F3" transform="translate(275,90)"/>
<path d="M0 0 C2 1 2 1 2 1 Z " fill="#F2F2F1" transform="translate(377,86)"/>
<path d="" fill="#898887" transform="translate(0,0)"/>
<path d="" fill="#F2F3F2" transform="translate(0,0)"/>
<path d="" fill="#F1F0F0" transform="translate(0,0)"/>
<path d="" fill="#F2F4F1" transform="translate(0,0)"/>
<path d="" fill="#F2F2F2" transform="translate(0,0)"/>
<path d="" fill="#F4F2F3" transform="translate(0,0)"/>
<path d="" fill="#F3F3F1" transform="translate(0,0)"/>
<path d="" fill="#F3F3F3" transform="translate(0,0)"/>
<path d="" fill="#F4F4F3" transform="translate(0,0)"/>
<path d="" fill="#F2F2F2" transform="translate(0,0)"/>
<path d="" fill="#F6F8F7" transform="translate(0,0)"/>
<path d="" fill="#EEEEEE" transform="translate(0,0)"/>
<path d="" fill="#F2F1F2" transform="translate(0,0)"/>
<path d="" fill="#EFF0ED" transform="translate(0,0)"/>
<path d="" fill="#EEEFEE" transform="translate(0,0)"/>
<path d="" fill="#F2F2F3" transform="translate(0,0)"/>
<path d="" fill="#EEEFF0" transform="translate(0,0)"/>
<path d="" fill="#F4F5F4" transform="translate(0,0)"/>
<path d="" fill="#F3F1F3" transform="translate(0,0)"/>
<path d="" fill="#F3F3F4" transform="translate(0,0)"/>
<path d="" fill="#F2F0F2" transform="translate(0,0)"/>
<path d="" fill="#EFF2F0" transform="translate(0,0)"/>
<path d="" fill="#EFF2EF" transform="translate(0,0)"/>
<path d="" fill="#F2F4F7" transform="translate(0,0)"/>
<path d="" fill="#F0F2F1" transform="translate(0,0)"/>
<path d="" fill="#EDEDEC" transform="translate(0,0)"/>
<path d="" fill="#F4F3F2" transform="translate(0,0)"/>
<path d="" fill="#EFEFEF" transform="translate(0,0)"/>
<path d="" fill="#F1F0F0" transform="translate(0,0)"/>
<path d="" fill="#F1F3F1" transform="translate(0,0)"/>
<path d="" fill="#F0F1F1" transform="translate(0,0)"/>
<path d="" fill="#F3F5F3" transform="translate(0,0)"/>
<path d="" fill="#F5F2F3" transform="translate(0,0)"/>
<path d="" fill="#EFF1F0" transform="translate(0,0)"/>
<path d="" fill="#F1EFF2" transform="translate(0,0)"/>
<path d="" fill="#F2F3F1" transform="translate(0,0)"/>
<path d="" fill="#F4F5F5" transform="translate(0,0)"/>
<path d="" fill="#F2F2F2" transform="translate(0,0)"/>
<path d="" fill="#F4F4F4" transform="translate(0,0)"/>
<path d="" fill="#FAF9FA" transform="translate(0,0)"/>
<path d="" fill="#F8F9F9" transform="translate(0,0)"/>
<path d="" fill="#FDFAFB" transform="translate(0,0)"/>
<path d="" fill="#F5F6F7" transform="translate(0,0)"/>
<path d="" fill="#FAF8FB" transform="translate(0,0)"/>
<path d="" fill="#FCFBF9" transform="translate(0,0)"/>
<path d="" fill="#FCFDFC" transform="translate(0,0)"/>
<path d="" fill="#F7F7F8" transform="translate(0,0)"/>
<path d="" fill="#F8F9F9" transform="translate(0,0)"/>
<path d="" fill="#FAFCF8" transform="translate(0,0)"/>
<path d="" fill="#FAF9FA" transform="translate(0,0)"/>
<path d="" fill="#F9FBFA" transform="translate(0,0)"/>
<path d="" fill="#F6F7F7" transform="translate(0,0)"/>
<path d="" fill="#F9F8F9" transform="translate(0,0)"/>
<path d="" fill="#F8F8F8" transform="translate(0,0)"/>
<path d="" fill="#F9FAF9" transform="translate(0,0)"/>
<path d="" fill="#FAFCFB" transform="translate(0,0)"/>
<path d="" fill="#F1F0EF" transform="translate(0,0)"/>
<path d="" fill="#F5F5F2" transform="translate(0,0)"/>
<path d="" fill="#F5F6F7" transform="translate(0,0)"/>
<path d="" fill="#F4F5F4" transform="translate(0,0)"/>
<path d="" fill="#F6F4F5" transform="translate(0,0)"/>
<path d="" fill="#F4F5F8" transform="translate(0,0)"/>
<path d="" fill="#F3F4F6" transform="translate(0,0)"/>
<path d="" fill="#FAFAF9" transform="translate(0,0)"/>
<path d="" fill="#FAFBFA" transform="translate(0,0)"/>
<path d="" fill="#F9F9FA" transform="translate(0,0)"/>
<path d="" fill="#FAFAFB" transform="translate(0,0)"/>
<path d="" fill="#FAF9FA" transform="translate(0,0)"/>
<path d="" fill="#F5F6F6" transform="translate(0,0)"/>
<path d="" fill="#F7F8F8" transform="translate(0,0)"/>
<path d="" fill="#FBFBFA" transform="translate(0,0)"/>
<path d="" fill="#F4F5F3" transform="translate(0,0)"/>
<path d="" fill="#EFF0EF" transform="translate(0,0)"/>
<path d="" fill="#F9F8F8" transform="translate(0,0)"/>
<path d="" fill="#FCFCFC" transform="translate(0,0)"/>
<path d="" fill="#F7F6F5" transform="translate(0,0)"/>
<path d="" fill="#F1F2F0" transform="translate(0,0)"/>
<path d="" fill="#F8F9F8" transform="translate(0,0)"/>
<path d="" fill="#F0F1EF" transform="translate(0,0)"/>
<path d="" fill="#FAFAFB" transform="translate(0,0)"/>
<path d="" fill="#F5F5F7" transform="translate(0,0)"/>
<path d="" fill="#F5F6F7" transform="translate(0,0)"/>
<path d="" fill="#F6F7F7" transform="translate(0,0)"/>
<path d="" fill="#EFEFEF" transform="translate(0,0)"/>
<path d="" fill="#F6F6F5" transform="translate(0,0)"/>
<path d="" fill="#F8F7F8" transform="translate(0,0)"/>
<path d="" fill="#F7F7F9" transform="translate(0,0)"/>
<path d="" fill="#F6F8F8" transform="translate(0,0)"/>
<path d="" fill="#F7F9F9" transform="translate(0,0)"/>
<path d="" fill="#F8F9F8" transform="translate(0,0)"/>
<path d="" fill="#F8F9F7" transform="translate(0,0)"/>
<path d="" fill="#F4F3F4" transform="translate(0,0)"/>
<path d="" fill="#FCFCFB" transform="translate(0,0)"/>
<path d="" fill="#F2F3F3" transform="translate(0,0)"/>
<path d="" fill="#F9F9F8" transform="translate(0,0)"/>
<path d="" fill="#F2F4F1" transform="translate(0,0)"/>
<path d="" fill="#F2F2F2" transform="translate(0,0)"/>
<path d="" fill="#F6F7F6" transform="translate(0,0)"/>
<path d="" fill="#EEEFF0" transform="translate(0,0)"/>
<path d="" fill="#F7F7F8" transform="translate(0,0)"/>
<path d="" fill="#F1F2F3" transform="translate(0,0)"/>
<path d="" fill="#F7F5F6" transform="translate(0,0)"/>
<path d="" fill="#F5F5F6" transform="translate(0,0)"/>
<path d="" fill="#F6F6F4" transform="translate(0,0)"/>
<path d="" fill="#F6F5F6" transform="translate(0,0)"/>
<path d="" fill="#F5F5F4" transform="translate(0,0)"/>
<path d="" fill="#FDFCFE" transform="translate(0,0)"/>
<path d="" fill="#F9F7F6" transform="translate(0,0)"/>
<path d="" fill="#F1F1EE" transform="translate(0,0)"/>
<path d="" fill="#F3F3F3" transform="translate(0,0)"/>
<path d="" fill="#F6F8F7" transform="translate(0,0)"/>
<path d="" fill="#F3F2F1" transform="translate(0,0)"/>
<path d="" fill="#F7F8F6" transform="translate(0,0)"/>
<path d="" fill="#F6F7F5" transform="translate(0,0)"/>
<path d="" fill="#F9FAFA" transform="translate(0,0)"/>
<path d="" fill="#F2F1EF" transform="translate(0,0)"/>
<path d="" fill="#F5F5F4" transform="translate(0,0)"/>
<path d="" fill="#F8F9F8" transform="translate(0,0)"/>
<path d="" fill="#F2F2F1" transform="translate(0,0)"/>
<path d="" fill="#F5F4F4" transform="translate(0,0)"/>
<path d="" fill="#FBFCF9" transform="translate(0,0)"/>
<path d="" fill="#FAFBFA" transform="translate(0,0)"/>
<path d="" fill="#EEF1F0" transform="translate(0,0)"/>
<path d="" fill="#EEF0F0" transform="translate(0,0)"/>
<path d="" fill="#F6F6F6" transform="translate(0,0)"/>
<path d="" fill="#F9FBFB" transform="translate(0,0)"/>
<path d="" fill="#EFEEEF" transform="translate(0,0)"/>
<path d="" fill="#F6F6F6" transform="translate(0,0)"/>
<path d="" fill="#F9F9F7" transform="translate(0,0)"/>
<path d="" fill="#F8F9F7" transform="translate(0,0)"/>
<path d="" fill="#FBF9FA" transform="translate(0,0)"/>
<path d="" fill="#F9FBF8" transform="translate(0,0)"/>
<path d="" fill="#F9F9F8" transform="translate(0,0)"/>
<path d="" fill="#F1F1F1" transform="translate(0,0)"/>
<path d="" fill="#F5F4F3" transform="translate(0,0)"/>
<path d="" fill="#FCFCFD" transform="translate(0,0)"/>
<path d="" fill="#FAF9FA" transform="translate(0,0)"/>
<path d="" fill="#F9FAF8" transform="translate(0,0)"/>
<path d="" fill="#F6F8F8" transform="translate(0,0)"/>
<path d="" fill="#F5F5F6" transform="translate(0,0)"/>
<path d="" fill="#F9FCFC" transform="translate(0,0)"/>
<path d="" fill="#F8F8F7" transform="translate(0,0)"/>
<path d="" fill="#FBFAF8" transform="translate(0,0)"/>
<path d="" fill="#FCFCFA" transform="translate(0,0)"/>
<path d="" fill="#F0F0F2" transform="translate(0,0)"/>
<path d="" fill="#F5F6F5" transform="translate(0,0)"/>
<path d="" fill="#ECEFEF" transform="translate(0,0)"/>
<path d="" fill="#FCFAFA" transform="translate(0,0)"/>
<path d="" fill="#FCFBF9" transform="translate(0,0)"/>
<path d="" fill="#F1F1F0" transform="translate(0,0)"/>
<path d="" fill="#F5F5F3" transform="translate(0,0)"/>
<path d="" fill="#FEFCFE" transform="translate(0,0)"/>
<path d="" fill="#F8F9F8" transform="translate(0,0)"/>
<path d="" fill="#FBFCFB" transform="translate(0,0)"/>
<path d="" fill="#F5F5F6" transform="translate(0,0)"/>
<path d="" fill="#F9F9FB" transform="translate(0,0)"/>
<path d="" fill="#FCFAF9" transform="translate(0,0)"/>
<path d="" fill="#F9F9F8" transform="translate(0,0)"/>
<path d="" fill="#F9F9F9" transform="translate(0,0)"/>
<path d="" fill="#FBFAFA" transform="translate(0,0)"/>
<path d="" fill="#EFEEF0" transform="translate(0,0)"/>
<path d="" fill="#FBFCFA" transform="translate(0,0)"/>
<path d="" fill="#FBFCFB" transform="translate(0,0)"/>
<path d="" fill="#FAFAFA" transform="translate(0,0)"/>
<path d="" fill="#FAFAFB" transform="translate(0,0)"/>
<path d="" fill="#FDFCFD" transform="translate(0,0)"/>
<path d="" fill="#FAFBF9" transform="translate(0,0)"/>
<path d="" fill="#FBFCF9" transform="translate(0,0)"/>
<path d="" fill="#F0F0EF" transform="translate(0,0)"/>
<path d="" fill="#F0F0F0" transform="translate(0,0)"/>
<path d="" fill="#E8EAEA" transform="translate(0,0)"/>
<path d="" fill="#FCFCFD" transform="translate(0,0)"/>
<path d="" fill="#F1F0F2" transform="translate(0,0)"/>
<path d="" fill="#E9E9E8" transform="translate(0,0)"/>
<path d="" fill="#EBEAEA" transform="translate(0,0)"/>
<path d="" fill="#FDFEFD" transform="translate(0,0)"/>
<path d="" fill="#FDFDFD" transform="translate(0,0)"/>
<path d="" fill="#F1F1F2" transform="translate(0,0)"/>
<path d="" fill="#F9F8FC" transform="translate(0,0)"/>
<path d="" fill="#EEEFF1" transform="translate(0,0)"/>
<path d="" fill="#F8F8F8" transform="translate(0,0)"/>
<path d="" fill="#EEF0EF" transform="translate(0,0)"/>
<path d="" fill="#DADCDA" transform="translate(0,0)"/>
<path d="" fill="#DFDEDF" transform="translate(0,0)"/>
<path d="" fill="#E7E7E6" transform="translate(0,0)"/>
<path d="" fill="#FBFDFB" transform="translate(0,0)"/>
<path d="" fill="#FBFEFA" transform="translate(0,0)"/>
<path d="" fill="#868585" transform="translate(0,0)"/>
<path d="" fill="#F9F9F8" transform="translate(0,0)"/>
<path d="" fill="#F7F9F8" transform="translate(0,0)"/>
<path d="" fill="#F9F9FA" transform="translate(0,0)"/>
<path d="" fill="#FAFDFA" transform="translate(0,0)"/>
<path d="" fill="#FBFAF9" transform="translate(0,0)"/>
<path d="" fill="#DBDBDB" transform="translate(0,0)"/>
<path d="" fill="#FBFBFB" transform="translate(0,0)"/>
<path d="" fill="#FBFCFB" transform="translate(0,0)"/>
<path d="" fill="#FAFAFA" transform="translate(0,0)"/>
<path d="" fill="#F8F6F7" transform="translate(0,0)"/>
<path d="" fill="#EDEEF0" transform="translate(0,0)"/>
<path d="" fill="#F0F0F1" transform="translate(0,0)"/>
<path d="" fill="#FCFCFC" transform="translate(0,0)"/>
<path d="" fill="#EFEEF0" transform="translate(0,0)"/>
<path d="" fill="#F9F8F8" transform="translate(0,0)"/>
<path d="" fill="#FAFBFB" transform="translate(0,0)"/>
<path d="" fill="#FAFBFA" transform="translate(0,0)"/>
<path d="" fill="#F9F9F9" transform="translate(0,0)"/>
<path d="" fill="#FDFBFD" transform="translate(0,0)"/>
<path d="" fill="#FAFAFA" transform="translate(0,0)"/>
<path d="" fill="#FBF9F9" transform="translate(0,0)"/>
<path d="" fill="#F7F7F8" transform="translate(0,0)"/>
<path d="" fill="#F9FAF9" transform="translate(0,0)"/>
<path d="" fill="#FAFBFB" transform="translate(0,0)"/>
<path d="" fill="#FCFBFA" transform="translate(0,0)"/>
<path d="" fill="#F9FAFA" transform="translate(0,0)"/>
<path d="" fill="#F6F6F6" transform="translate(0,0)"/>
<path d="" fill="#FBFCFA" transform="translate(0,0)"/>
<path d="" fill="#FDFBFC" transform="translate(0,0)"/>
<path d="" fill="#F2F3F3" transform="translate(0,0)"/>
<path d="" fill="#FCFDFB" transform="translate(0,0)"/>
<path d="" fill="#EEEEED" transform="translate(0,0)"/>
<path d="" fill="#FAFAFA" transform="translate(0,0)"/>
<path d="" fill="#FBFBFC" transform="translate(0,0)"/>
<path d="" fill="#FDFBFC" transform="translate(0,0)"/>
<path d="" fill="#FAFAF8" transform="translate(0,0)"/>
<path d="" fill="#F7F5F5" transform="translate(0,0)"/>
<path d="" fill="#FBFBFA" transform="translate(0,0)"/>
<path d="" fill="#FCFCFA" transform="translate(0,0)"/>
<path d="" fill="#FCFAFB" transform="translate(0,0)"/>
<path d="" fill="#FAF9F9" transform="translate(0,0)"/>
<path d="" fill="#F6F6F5" transform="translate(0,0)"/>
<path d="" fill="#F6F5F6" transform="translate(0,0)"/>
<path d="" fill="#FAFAF9" transform="translate(0,0)"/>
<path d="" fill="#F8F9F8" transform="translate(0,0)"/>
<path d="" fill="#F9FAFB" transform="translate(0,0)"/>
<path d="" fill="#FAF9F9" transform="translate(0,0)"/>
<path d="" fill="#F2F2F1" transform="translate(0,0)"/>
<path d="" fill="#FDFDFC" transform="translate(0,0)"/>
<path d="" fill="#F6FAF9" transform="translate(0,0)"/>
<path d="" fill="#FDFBFB" transform="translate(0,0)"/>
<path d="" fill="#FAF9FA" transform="translate(0,0)"/>
<path d="" fill="#F1F1EF" transform="translate(0,0)"/>
<path d="" fill="#FBFCFB" transform="translate(0,0)"/>
<path d="" fill="#FEFCFC" transform="translate(0,0)"/>
<path d="" fill="#FBFCFA" transform="translate(0,0)"/>
<path d="" fill="#FCFBFC" transform="translate(0,0)"/>
<path d="" fill="#FAFCFB" transform="translate(0,0)"/>
<path d="" fill="#FCFCFB" transform="translate(0,0)"/>
<path d="" fill="#FEFCFC" transform="translate(0,0)"/>
<path d="" fill="#F3F4F2" transform="translate(0,0)"/>
<path d="" fill="#FDFFFE" transform="translate(0,0)"/>
<path d="" fill="#F8F8F8" transform="translate(0,0)"/>
<path d="" fill="#F6F8F7" transform="translate(0,0)"/>
<path d="" fill="#FDFCFC" transform="translate(0,0)"/>
<path d="" fill="#FCFCFB" transform="translate(0,0)"/>
<path d="" fill="#F9FBFD" transform="translate(0,0)"/>
<path d="" fill="#FCFBFC" transform="translate(0,0)"/>
<path d="" fill="#FCFBFC" transform="translate(0,0)"/>
<path d="" fill="#F8F8F8" transform="translate(0,0)"/>
<path d="" fill="#F8F9F8" transform="translate(0,0)"/>
<path d="" fill="#F3F2F3" transform="translate(0,0)"/>
<path d="" fill="#FAFAF9" transform="translate(0,0)"/>
<path d="" fill="#F7F6F7" transform="translate(0,0)"/>
<path d="" fill="#F8F8F9" transform="translate(0,0)"/>
<path d="" fill="#F3F2F2" transform="translate(0,0)"/>
<path d="" fill="#FDFBFC" transform="translate(0,0)"/>
<path d="" fill="#FCF7FA" transform="translate(0,0)"/>
<path d="" fill="#FCFBFD" transform="translate(0,0)"/>
<path d="" fill="#FAFAFB" transform="translate(0,0)"/>
<path d="" fill="#F4F4F3" transform="translate(0,0)"/>
<path d="" fill="#F2F3F4" transform="translate(0,0)"/>
<path d="" fill="#FEFDFA" transform="translate(0,0)"/>
<path d="" fill="#F5F1F4" transform="translate(0,0)"/>
<path d="" fill="#F8F6F7" transform="translate(0,0)"/>
<path d="" fill="#FBFCFB" transform="translate(0,0)"/>
<path d="" fill="#FCFDFD" transform="translate(0,0)"/>
<path d="" fill="#FDFDFE" transform="translate(0,0)"/>
<path d="" fill="#FCFBFB" transform="translate(0,0)"/>
<path d="" fill="#F8FAF9" transform="translate(0,0)"/>
<path d="" fill="#F8F9F9" transform="translate(0,0)"/>
<path d="" fill="#F7F6F7" transform="translate(0,0)"/>
<path d="" fill="#F8F8F8" transform="translate(0,0)"/>
<path d="" fill="#F6F6F5" transform="translate(0,0)"/>
<path d="" fill="#F8FCFA" transform="translate(0,0)"/>
<path d="" fill="#FBFBFB" transform="translate(0,0)"/>
<path d="" fill="#F5F4F4" transform="translate(0,0)"/>
<path d="" fill="#F4F5F5" transform="translate(0,0)"/>
<path d="" fill="#FBFBFB" transform="translate(0,0)"/>
<path d="" fill="#F5F6F4" transform="translate(0,0)"/>
<path d="" fill="#FCF9FB" transform="translate(0,0)"/>
<path d="" fill="#F3F4F2" transform="translate(0,0)"/>
<path d="" fill="#F7F7F9" transform="translate(0,0)"/>
<path d="" fill="#F7F7F6" transform="translate(0,0)"/>
<path d="" fill="#F5F6F3" transform="translate(0,0)"/>
<path d="" fill="#F3F5F5" transform="translate(0,0)"/>
<path d="" fill="#FAF9F8" transform="translate(0,0)"/>
<path d="" fill="#EDEFEE" transform="translate(0,0)"/>
<path d="" fill="#FBFBF9" transform="translate(0,0)"/>
<path d="" fill="#F9F9F9" transform="translate(0,0)"/>
<path d="" fill="#F9F8F8" transform="translate(0,0)"/>
<path d="" fill="#FAF9FA" transform="translate(0,0)"/>
<path d="" fill="#EEEEED" transform="translate(0,0)"/>
<path d="" fill="#F4F4F4" transform="translate(0,0)"/>
<path d="" fill="#FAFBFB" transform="translate(0,0)"/>
<path d="" fill="#F2F4F3" transform="translate(0,0)"/>
<path d="" fill="#F5F3F5" transform="translate(0,0)"/>
<path d="" fill="#FAFAFA" transform="translate(0,0)"/>
<path d="" fill="#F4F4F4" transform="translate(0,0)"/>
<path d="" fill="#F5F5F4" transform="translate(0,0)"/>
<path d="" fill="#FAFAFA" transform="translate(0,0)"/>
<path d="" fill="#F5F5F4" transform="translate(0,0)"/>
<path d="" fill="#F5F6F7" transform="translate(0,0)"/>
<path d="" fill="#F4F4F3" transform="translate(0,0)"/>
<path d="" fill="#F9FBFD" transform="translate(0,0)"/>
<path d="" fill="#FAFAF9" transform="translate(0,0)"/>
<path d="" fill="#F0EFF0" transform="translate(0,0)"/>
<path d="" fill="#FCFAFB" transform="translate(0,0)"/>
<path d="" fill="#F2EFF1" transform="translate(0,0)"/>
<path d="" fill="#FDFAFD" transform="translate(0,0)"/>
<path d="" fill="#F9FAFA" transform="translate(0,0)"/>
<path d="" fill="#F0F0F0" transform="translate(0,0)"/>
<path d="" fill="#FCFAFA" transform="translate(0,0)"/>
<path d="" fill="#F6F6F7" transform="translate(0,0)"/>
<path d="" fill="#FBFDF9" transform="translate(0,0)"/>
<path d="" fill="#FEFDFC" transform="translate(0,0)"/>
<path d="" fill="#FAF8F8" transform="translate(0,0)"/>
<path d="" fill="#FBFBFC" transform="translate(0,0)"/>
<path d="" fill="#F8F9F9" transform="translate(0,0)"/>
<path d="" fill="#FAF8F7" transform="translate(0,0)"/>
<path d="" fill="#F8F7F6" transform="translate(0,0)"/>
<path d="" fill="#F5F6F7" transform="translate(0,0)"/>
<path d="" fill="#F9F8F8" transform="translate(0,0)"/>
<path d="" fill="#F8F8F9" transform="translate(0,0)"/>
<path d="" fill="#FCFBFB" transform="translate(0,0)"/>
<path d="" fill="#F9FAFA" transform="translate(0,0)"/>
<path d="" fill="#FCFCFA" transform="translate(0,0)"/>
<path d="" fill="#F9FAF9" transform="translate(0,0)"/>
<path d="" fill="#FCF8FA" transform="translate(0,0)"/>
<path d="" fill="#FCFBFB" transform="translate(0,0)"/>
<path d="" fill="#F9FAFB" transform="translate(0,0)"/>
<path d="" fill="#FCFDFA" transform="translate(0,0)"/>
<path d="" fill="#F6F7F7" transform="translate(0,0)"/>
<path d="" fill="#F9F8F9" transform="translate(0,0)"/>
<path d="" fill="#FBFCFC" transform="translate(0,0)"/>
<path d="" fill="#F9F9F9" transform="translate(0,0)"/>
<path d="" fill="#FAFCFB" transform="translate(0,0)"/>
<path d="" fill="#FEFDFB" transform="translate(0,0)"/>
<path d="" fill="#FEFEFB" transform="translate(0,0)"/>
<path d="" fill="#F8F7F8" transform="translate(0,0)"/>
<path d="" fill="#FDFDFC" transform="translate(0,0)"/>
<path d="" fill="#FEFDFB" transform="translate(0,0)"/>
<path d="" fill="#FAFAFC" transform="translate(0,0)"/>
<path d="" fill="#D7D6D6" transform="translate(0,0)"/>
<path d="" fill="#FCFBFB" transform="translate(0,0)"/>
<path d="" fill="#F8FAF9" transform="translate(0,0)"/>
<path d="" fill="#D7D8D7" transform="translate(0,0)"/>
<path d="" fill="#DAD8D8" transform="translate(0,0)"/>
<path d="" fill="#FCFDFB" transform="translate(0,0)"/>
<path d="" fill="#FCFCF9" transform="translate(0,0)"/>
<path d="" fill="#F8F8F9" transform="translate(0,0)"/>
<path d="" fill="#F9FAF8" transform="translate(0,0)"/>
<path d="" fill="#F8F7F8" transform="translate(0,0)"/>
<path d="" fill="#FAF7F9" transform="translate(0,0)"/>
<path d="" fill="#FDFCFB" transform="translate(0,0)"/>
<path d="" fill="#F7F8F8" transform="translate(0,0)"/>
<path d="" fill="#F9F9F8" transform="translate(0,0)"/>
<path d="" fill="#FAFEFF" transform="translate(0,0)"/>
<path d="" fill="#F9F7F8" transform="translate(0,0)"/>
<path d="" fill="#FAFAFA" transform="translate(0,0)"/>
<path d="" fill="#E8E7E9" transform="translate(0,0)"/>
<path d="" fill="#F7F7F6" transform="translate(0,0)"/>
<path d="" fill="#F5F7F7" transform="translate(0,0)"/>
<path d="" fill="#FBFCFB" transform="translate(0,0)"/>
<path d="" fill="#F9F9F9" transform="translate(0,0)"/>
<path d="" fill="#FBFBFB" transform="translate(0,0)"/>
<path d="" fill="#FDFDFF" transform="translate(0,0)"/>
<path d="" fill="#F7F7F7" transform="translate(0,0)"/>
<path d="" fill="#FDFEFB" transform="translate(0,0)"/>
<path d="" fill="#F7F9F9" transform="translate(0,0)"/>
<path d="" fill="#E9EAEB" transform="translate(0,0)"/>
<path d="" fill="#F7F9F8" transform="translate(0,0)"/>
<path d="" fill="#FFFCFD" transform="translate(0,0)"/>
<path d="" fill="#F6F5F5" transform="translate(0,0)"/>
<path d="" fill="#F8F8F8" transform="translate(0,0)"/>
<path d="" fill="#FDFBFB" transform="translate(0,0)"/>
<path d="" fill="#FBFDFB" transform="translate(0,0)"/>
<path d="" fill="#F7F8F6" transform="translate(0,0)"/>
<path d="" fill="#FAFCFA" transform="translate(0,0)"/>
<path d="" fill="#FBFDFC" transform="translate(0,0)"/>
<path d="" fill="#F7F9F6" transform="translate(0,0)"/>
<path d="" fill="#FCFBFA" transform="translate(0,0)"/>
<path d="" fill="#FDFCFC" transform="translate(0,0)"/>
<path d="" fill="#F8FAFB" transform="translate(0,0)"/>
<path d="" fill="#FBFBFA" transform="translate(0,0)"/>
<path d="" fill="#F3F4F3" transform="translate(0,0)"/>
<path d="" fill="#F0F1F0" transform="translate(0,0)"/>
<path d="" fill="#FAFBFA" transform="translate(0,0)"/>
<path d="" fill="#FAFBF7" transform="translate(0,0)"/>
<path d="" fill="#FDFCFB" transform="translate(0,0)"/>
<path d="" fill="#EBECED" transform="translate(0,0)"/>
<path d="" fill="#FBFAF8" transform="translate(0,0)"/>
<path d="" fill="#FBFAFF" transform="translate(0,0)"/>
<path d="" fill="#F9FCFB" transform="translate(0,0)"/>
<path d="" fill="#FBFBFD" transform="translate(0,0)"/>
<path d="" fill="#F8F8F8" transform="translate(0,0)"/>
<path d="" fill="#FDFCFC" transform="translate(0,0)"/>
<path d="" fill="#FDFAFB" transform="translate(0,0)"/>
<path d="" fill="#FBFFFD" transform="translate(0,0)"/>
<path d="" fill="#F9F8F9" transform="translate(0,0)"/>
<path d="" fill="#F9F9F9" transform="translate(0,0)"/>
<path d="" fill="#FCFBF9" transform="translate(0,0)"/>
<path d="" fill="#FAFAFC" transform="translate(0,0)"/>
<path d="" fill="#FBFAFA" transform="translate(0,0)"/>
<path d="" fill="#F0F0F0" transform="translate(0,0)"/>
<path d="" fill="#F3F5F5" transform="translate(0,0)"/>
<path d="" fill="#FBFBFA" transform="translate(0,0)"/>
<path d="" fill="#F5F6F5" transform="translate(0,0)"/>
<path d="" fill="#FDFAFB" transform="translate(0,0)"/>
<path d="" fill="#F4F4F4" transform="translate(0,0)"/>
<path d="" fill="#F9FCFC" transform="translate(0,0)"/>
<path d="" fill="#FDFCFC" transform="translate(0,0)"/>
<path d="" fill="#F5F5F6" transform="translate(0,0)"/>
<path d="" fill="#FBFBFB" transform="translate(0,0)"/>
<path d="" fill="#FCFDFB" transform="translate(0,0)"/>
<path d="" fill="#F7F5F8" transform="translate(0,0)"/>
<path d="" fill="#FAFBFA" transform="translate(0,0)"/>
<path d="" fill="#FAFEFB" transform="translate(0,0)"/>
<path d="" fill="#FCFCF9" transform="translate(0,0)"/>
<path d="" fill="#F7F8F4" transform="translate(0,0)"/>
<path d="" fill="#FAFAFD" transform="translate(0,0)"/>
<path d="" fill="#F7F6F6" transform="translate(0,0)"/>
<path d="" fill="#FBFBFB" transform="translate(0,0)"/>
<path d="" fill="#F6F7F8" transform="translate(0,0)"/>
<path d="" fill="#F7F9F9" transform="translate(0,0)"/>
<path d="" fill="#EBEEED" transform="translate(0,0)"/>
<path d="" fill="#F8F8F9" transform="translate(0,0)"/>
<path d="" fill="#FCFEFC" transform="translate(0,0)"/>
<path d="" fill="#F8F9FB" transform="translate(0,0)"/>
<path d="" fill="#FFFBFC" transform="translate(0,0)"/>
<path d="" fill="#FEFDFB" transform="translate(0,0)"/>
<path d="" fill="#FCFBFC" transform="translate(0,0)"/>
<path d="" fill="#FDFBFC" transform="translate(0,0)"/>
<path d="" fill="#F0EFEE" transform="translate(0,0)"/>
<path d="" fill="#F5F4F4" transform="translate(0,0)"/>
<path d="" fill="#FAF9F9" transform="translate(0,0)"/>
<path d="" fill="#F7F8F7" transform="translate(0,0)"/>
<path d="" fill="#F2F1F2" transform="translate(0,0)"/>
<path d="" fill="#F8F7F8" transform="translate(0,0)"/>
<path d="" fill="#FBFBFB" transform="translate(0,0)"/>
<path d="" fill="#F7F5F5" transform="translate(0,0)"/>
<path d="" fill="#F9F9F8" transform="translate(0,0)"/>
<path d="" fill="#F7F9F9" transform="translate(0,0)"/>
<path d="" fill="#F6F5F7" transform="translate(0,0)"/>
<path d="" fill="#F9F8F8" transform="translate(0,0)"/>
<path d="" fill="#FBFBFA" transform="translate(0,0)"/>
<path d="" fill="#FBFDFE" transform="translate(0,0)"/>
<path d="" fill="#F5F6F7" transform="translate(0,0)"/>
<path d="" fill="#F5F4F4" transform="translate(0,0)"/>
<path d="" fill="#F5F5F7" transform="translate(0,0)"/>
<path d="" fill="#F9FAF8" transform="translate(0,0)"/>
<path d="" fill="#F5F7F6" transform="translate(0,0)"/>
<path d="" fill="#F7F8F7" transform="translate(0,0)"/>
<path d="" fill="#F6F7F5" transform="translate(0,0)"/>
<path d="" fill="#EBEAED" transform="translate(0,0)"/>
<path d="" fill="#F9F6F5" transform="translate(0,0)"/>
<path d="" fill="#FAFAF8" transform="translate(0,0)"/>
<path d="" fill="#F6F7F7" transform="translate(0,0)"/>
<path d="" fill="#B9B9BA" transform="translate(0,0)"/>
<path d="" fill="#E9ECEA" transform="translate(0,0)"/>
<path d="" fill="#FAFAFB" transform="translate(0,0)"/>
<path d="" fill="#F7F5F6" transform="translate(0,0)"/>
<path d="" fill="#F8F7F9" transform="translate(0,0)"/>
<path d="" fill="#F9F9FA" transform="translate(0,0)"/>
<path d="" fill="#F9FAF9" transform="translate(0,0)"/>
<path d="" fill="#F7F6F7" transform="translate(0,0)"/>
<path d="" fill="#FCFDFC" transform="translate(0,0)"/>
<path d="" fill="#F7F5F6" transform="translate(0,0)"/>
<path d="" fill="#FAFAFC" transform="translate(0,0)"/>
<path d="" fill="#FAFAF9" transform="translate(0,0)"/>
<path d="" fill="#F9F8F7" transform="translate(0,0)"/>
<path d="" fill="#F7F8F8" transform="translate(0,0)"/>
<path d="" fill="#FBFCFA" transform="translate(0,0)"/>
<path d="" fill="#F6F6F8" transform="translate(0,0)"/>
<path d="" fill="#FDFCFC" transform="translate(0,0)"/>
<path d="" fill="#FAF8F9" transform="translate(0,0)"/>
<path d="" fill="#F9F8F8" transform="translate(0,0)"/>
<path d="" fill="#FBFAF9" transform="translate(0,0)"/>
<path d="" fill="#FAFAFA" transform="translate(0,0)"/>
<path d="" fill="#F9F8F8" transform="translate(0,0)"/>
<path d="" fill="#F9F9FA" transform="translate(0,0)"/>
<path d="" fill="#F8F8F8" transform="translate(0,0)"/>
<path d="" fill="#F8F8F8" transform="translate(0,0)"/>
<path d="" fill="#F9F8F8" transform="translate(0,0)"/>
<path d="" fill="#FBFBFB" transform="translate(0,0)"/>
<path d="" fill="#F8F7F8" transform="translate(0,0)"/>
<path d="" fill="#FDFBFA" transform="translate(0,0)"/>
<path d="" fill="#FCFAFA" transform="translate(0,0)"/>
<path d="" fill="#F9FAF8" transform="translate(0,0)"/>
<path d="" fill="#F6F8F7" transform="translate(0,0)"/>
<path d="" fill="#F6F6F6" transform="translate(0,0)"/>
<path d="" fill="#F8F8F7" transform="translate(0,0)"/>
<path d="" fill="#F4F4F2" transform="translate(0,0)"/>
<path d="" fill="#F9F8F8" transform="translate(0,0)"/>
<path d="" fill="#F5F5F4" transform="translate(0,0)"/>
<path d="" fill="#FDFDFC" transform="translate(0,0)"/>
<path d="" fill="#FAFAFA" transform="translate(0,0)"/>
<path d="" fill="#F7F6F7" transform="translate(0,0)"/>
<path d="" fill="#FBFBF8" transform="translate(0,0)"/>
<path d="" fill="#EEF2F2" transform="translate(0,0)"/>
<path d="" fill="#F8F8F8" transform="translate(0,0)"/>
<path d="" fill="#F7F7F6" transform="translate(0,0)"/>
<path d="" fill="#F9F9FA" transform="translate(0,0)"/>
<path d="" fill="#F2F4F3" transform="translate(0,0)"/>
<path d="" fill="#F9F9F8" transform="translate(0,0)"/>
<path d="" fill="#FAF9FB" transform="translate(0,0)"/>
<path d="" fill="#FBFAF9" transform="translate(0,0)"/>
<path d="" fill="#F2F2F2" transform="translate(0,0)"/>
<path d="" fill="#F7F6F6" transform="translate(0,0)"/>
<path d="" fill="#F6F7F8" transform="translate(0,0)"/>
<path d="" fill="#F3F4F3" transform="translate(0,0)"/>
<path d="" fill="#F9FAF8" transform="translate(0,0)"/>
<path d="" fill="#F9F9F8" transform="translate(0,0)"/>
<path d="" fill="#F9F8F9" transform="translate(0,0)"/>
<path d="" fill="#F3F1F0" transform="translate(0,0)"/>
<path d="" fill="#F9F9F9" transform="translate(0,0)"/>
<path d="" fill="#F9F8F8" transform="translate(0,0)"/>
<path d="" fill="#EFEEED" transform="translate(0,0)"/>
<path d="" fill="#F5F4F6" transform="translate(0,0)"/>
<path d="" fill="#F9FAF9" transform="translate(0,0)"/>
<path d="" fill="#F9F9F8" transform="translate(0,0)"/>
<path d="" fill="#FAFCFE" transform="translate(0,0)"/>
<path d="" fill="#F7F6F6" transform="translate(0,0)"/>
<path d="" fill="#F5F6F6" transform="translate(0,0)"/>
<path d="" fill="#F9FBFA" transform="translate(0,0)"/>
<path d="" fill="#F5F6F6" transform="translate(0,0)"/>
<path d="" fill="#F0F0F2" transform="translate(0,0)"/>
<path d="" fill="#F2F1F3" transform="translate(0,0)"/>
<path d="" fill="#F0F0F1" transform="translate(0,0)"/>
<path d="" fill="#F7F6F6" transform="translate(0,0)"/>
<path d="" fill="#F3F3F3" transform="translate(0,0)"/>
<path d="" fill="#F7F7F7" transform="translate(0,0)"/>
<path d="" fill="#F6F4F5" transform="translate(0,0)"/>
<path d="" fill="#F3F3F4" transform="translate(0,0)"/>
<path d="" fill="#F1F3F1" transform="translate(0,0)"/>
<path d="" fill="#F2F1F1" transform="translate(0,0)"/>
<path d="" fill="#F6F6F6" transform="translate(0,0)"/>
<path d="" fill="#FAFAFA" transform="translate(0,0)"/>
<path d="" fill="#FBFBFC" transform="translate(0,0)"/>
<path d="" fill="#FBFAFC" transform="translate(0,0)"/>
<path d="" fill="#F9F8F9" transform="translate(0,0)"/>
<path d="" fill="#FCFCFC" transform="translate(0,0)"/>
<path d="" fill="#F3F2F4" transform="translate(0,0)"/>
<path d="" fill="#F1F4F4" transform="translate(0,0)"/>
<path d="" fill="#F7F9F7" transform="translate(0,0)"/>
<path d="" fill="#F9F7F6" transform="translate(0,0)"/>
<path d="" fill="#F1F3F2" transform="translate(0,0)"/>
<path d="" fill="#F6F6F7" transform="translate(0,0)"/>
<path d="" fill="#F2F3F4" transform="translate(0,0)"/>
<path d="" fill="#F1F1F1" transform="translate(0,0)"/>
<path d="" fill="#FCFCFB" transform="translate(0,0)"/>
<path d="" fill="#FCFAFA" transform="translate(0,0)"/>
<path d="" fill="#FDFAFA" transform="translate(0,0)"/>
<path d="" fill="#FDFDFC" transform="translate(0,0)"/>
<path d="" fill="#FBFBF9" transform="translate(0,0)"/>
<path d="" fill="#F2F1F1" transform="translate(0,0)"/>
<path d="" fill="#F2F2F1" transform="translate(0,0)"/>
<path d="" fill="#FBFAFA" transform="translate(0,0)"/>
<path d="" fill="#FCFAF9" transform="translate(0,0)"/>
<path d="" fill="#F5F5F4" transform="translate(0,0)"/>
<path d="" fill="#F5F3F2" transform="translate(0,0)"/>
<path d="" fill="#FCFAFA" transform="translate(0,0)"/>
<path d="" fill="#F4F4F3" transform="translate(0,0)"/>
<path d="" fill="#EBEDEC" transform="translate(0,0)"/>
<path d="" fill="#F9FBFC" transform="translate(0,0)"/>
<path d="" fill="#EBEEEE" transform="translate(0,0)"/>
<path d="" fill="#F3F2F2" transform="translate(0,0)"/>
<path d="" fill="#F4F5F3" transform="translate(0,0)"/>
<path d="" fill="#F0F1EF" transform="translate(0,0)"/>
<path d="" fill="#FAFDFC" transform="translate(0,0)"/>
<path d="" fill="#F9F8F8" transform="translate(0,0)"/>
<path d="" fill="#FAF9F9" transform="translate(0,0)"/>
<path d="" fill="#F2F3F1" transform="translate(0,0)"/>
<path d="" fill="#EEEFEF" transform="translate(0,0)"/>
<path d="" fill="#F2F2EE" transform="translate(0,0)"/>
<path d="" fill="#F1F1F2" transform="translate(0,0)"/>
<path d="" fill="#F3F2F2" transform="translate(0,0)"/>
<path d="" fill="#F8F9F7" transform="translate(0,0)"/>
<path d="" fill="#F4F1F2" transform="translate(0,0)"/>
<path d="" fill="#F0F2F1" transform="translate(0,0)"/>
<path d="" fill="#F1F0EF" transform="translate(0,0)"/>
<path d="" fill="#F1F1EF" transform="translate(0,0)"/>
<path d="" fill="#F5F1F3" transform="translate(0,0)"/>
<path d="" fill="#F8F8F8" transform="translate(0,0)"/>
<path d="" fill="#F0F0F1" transform="translate(0,0)"/>
<path d="" fill="#F0F1EF" transform="translate(0,0)"/>
<path d="" fill="#F7FAF9" transform="translate(0,0)"/>
<path d="" fill="#FAFAFB" transform="translate(0,0)"/>
<path d="" fill="#FBFBFB" transform="translate(0,0)"/>
<path d="" fill="#F7F8F9" transform="translate(0,0)"/>
<path d="" fill="#F8F9F8" transform="translate(0,0)"/>
<path d="" fill="#F8F7F7" transform="translate(0,0)"/>
<path d="" fill="#F9F9FA" transform="translate(0,0)"/>
<path d="" fill="#F9FAF9" transform="translate(0,0)"/>
<path d="" fill="#FAF8F8" transform="translate(0,0)"/>
<path d="" fill="#F8FAFA" transform="translate(0,0)"/>
<path d="" fill="#F9F8F8" transform="translate(0,0)"/>
<path d="" fill="#F9F9F8" transform="translate(0,0)"/>
<path d="" fill="#F3F4F4" transform="translate(0,0)"/>
<path d="" fill="#F9F9FA" transform="translate(0,0)"/>
<path d="" fill="#F9F9F8" transform="translate(0,0)"/>
<path d="" fill="#FAFCFA" transform="translate(0,0)"/>
<path d="" fill="#FBFBFB" transform="translate(0,0)"/>
<path d="" fill="#F9F8F8" transform="translate(0,0)"/>
<path d="" fill="#F5F5F6" transform="translate(0,0)"/>
<path d="" fill="#F2F5F4" transform="translate(0,0)"/>
<path d="" fill="#F4F3F2" transform="translate(0,0)"/>
<path d="" fill="#F0EFEF" transform="translate(0,0)"/>
<path d="" fill="#F2F3F0" transform="translate(0,0)"/>
<path d="" fill="#F3F2F3" transform="translate(0,0)"/>
<path d="" fill="#F4F4F3" transform="translate(0,0)"/>
<path d="" fill="#F2F3F3" transform="translate(0,0)"/>
<path d="" fill="#F3F3F3" transform="translate(0,0)"/>
<path d="" fill="#F6F6F7" transform="translate(0,0)"/>
<path d="" fill="#F3F3F3" transform="translate(0,0)"/>
<path d="" fill="#F1F1F0" transform="translate(0,0)"/>
<path d="" fill="#F4F5F4" transform="translate(0,0)"/>
<path d="" fill="#F3F5F4" transform="translate(0,0)"/>
<path d="" fill="#6A6969" transform="translate(0,0)"/>
<path d="" fill="#80827F" transform="translate(0,0)"/>
</svg>
