<?xml version="1.0" encoding="UTF-8"?>
<svg version="1.1" xmlns="http://www.w3.org/2000/svg" width="500" height="500">
<path d="M0 0 C2 2 2 2 2.125 4.625 C2.08375 5.40875 2.0425 6.1925 2 7 C-0.56126064 8.294174 -3.12393358 9.58540784 -5.6875 10.875 C-6.40873047 11.23980469 -7.12996094 11.60460937 -7.87304688 11.98046875 C-10.8745076 13.48805176 -13.80934804 14.92702196 -16.94921875 16.12890625 C-19.5827016 17.24750944 -19.85486034 18.4643336 -21 21 C-21.99 21.33 -22.98 21.66 -24 22 C-25.0892223 23.84966318 -25.0892223 23.84966318 -26 26 C-26.79919627 27.27924155 -27.61211593 28.54999664 -28.4375 29.8125 C-37.18872087 43.78871451 -38.09461963 61.05430989 -34.875 77 C-30.95842171 91.30639016 -21.83294077 102.67949083 -9 110 C-8.31164062 110.42796875 -7.62328125 110.8559375 -6.9140625 111.296875 C16.01265423 124.32890346 48.7530282 122.96698614 73.58984375 116.64453125 C82.04636441 114.21987031 90.06693216 110.77007823 98 107 C97.93941406 106.39639648 97.87882813 105.79279297 97.81640625 105.17089844 C95.50475211 81.84986452 95.50475211 81.84986452 96 73 C96.03577148 72.27586914 96.07154297 71.55173828 96.10839844 70.80566406 C97.12050891 52.24045521 101.82462164 35.11295989 109 18 C109.99 18 110.98 18 112 18 C113.8671875 20.30859375 113.8671875 20.30859375 115.875 23.4375 C116.57496094 24.52546875 117.27492187 25.6134375 117.99609375 26.734375 C120.1362432 30.22202596 122.16950224 33.74262286 124.08984375 37.35546875 C124.89262218 38.98471334 124.89262218 38.98471334 126 40 C126.25277573 41.96835118 126.4452686 43.94448438 126.61328125 45.921875 C126.72470459 47.16541748 126.83612793 48.40895996 126.95092773 49.69018555 C127.00948944 50.35287445 127.06805115 51.01556335 127.12838745 51.69833374 C129.25778764 77.49124068 129.25778764 77.49124068 137 102 C137.26796387 102.59055176 137.53592773 103.18110352 137.81201172 103.78955078 C142.72943788 114.48874248 148.31880867 125.38291238 156.76953125 133.73828125 C159 136 159 136 159 138 C159.598125 138.268125 160.19625 138.53625 160.8125 138.8125 C163.01054464 140.00572423 164.24678871 141.24678871 166 143 C167.65623141 144.01718991 169.3251227 145.01381351 171 146 C171.97453125 146.61617187 172.9490625 147.23234375 173.953125 147.8671875 C194.2044726 160.20035416 218.03630877 162.58924316 241.23828125 157.92578125 C246.31987893 156.6751559 251.1696547 155.00504899 256 153 C257.08619629 152.55043945 257.08619629 152.55043945 258.19433594 152.09179688 C268.96699815 147.46441529 279.98713222 141.09580389 288.265625 132.703125 C290 131 290 131 292 131 C292.226875 130.443125 292.45375 129.88625 292.6875 129.3125 C294.36228319 126.36169152 296.59748377 124.39556249 299 122 C307.4006536 112.2471864 314.2404626 102.51907479 320 91 C322.3125 90.75 322.3125 90.75 325 91 C326.66796875 93.015625 326.66796875 93.015625 328 95 C319.34142823 114.27511203 304.36751084 132.63876666 288 146 C287.40058594 146.61230469 286.80117188 147.22460938 286.18359375 147.85546875 C262.00196101 171.60451415 227.5064939 182.6892686 194.24389648 182.47680664 C184.40659228 182.23868222 175.39630823 180.86363679 166 178 C164.52853516 177.566875 164.52853516 177.566875 163.02734375 177.125 C150.51634995 172.99766184 138.84234202 166.74072209 129 158 C128.28714844 157.41734375 127.57429687 156.8346875 126.83984375 156.234375 C125.18154702 154.87608822 123.58299512 153.44534337 122 152 C122 151.34 122 150.68 122 150 C121.34 150 120.68 150 120 150 C113.62217916 142.27428918 102 127.40413256 102 117 C98.33325221 117.3760767 95.4023524 118.20842157 92.125 119.8125 C85.41803058 122.93334025 78.17927067 124.36834758 71 126 C70.05382812 126.21785156 69.10765625 126.43570313 68.1328125 126.66015625 C33.50524552 134.12776255 -8.423871 130.36333723 -38.8125 111.5 C-40.54694755 110.34119882 -42.27660017 109.17516871 -44 108 C-45.02673828 107.36384766 -45.02673828 107.36384766 -46.07421875 106.71484375 C-58.43088944 98.51883702 -66.29671576 84.32480774 -69.875 70.3125 C-72.87073935 54.92760132 -69.77252201 40.48104895 -62 27 C-51.32633868 11.94501046 -33.4853873 4.45106328 -16 1 C-10.62654394 0.1873285 -5.42799123 -0.28075817 0 0 Z " fill="#0E0E0E" transform="translate(108,245)"/>
<path d="M0 0 C22.06869988 -0.76107742 47.45888401 2.65255159 64.296875 18.1953125 C64.296875 18.8553125 64.296875 19.5153125 64.296875 20.1953125 C64.90273438 20.44796875 65.50859375 20.700625 66.1328125 20.9609375 C68.59528231 22.36552317 69.47375018 23.53488538 70.921875 25.9453125 C71.32664062 26.60015625 71.73140625 27.255 72.1484375 27.9296875 C76.39500316 36.30726601 76.93524123 47.01641996 74.109375 56.0078125 C73.54312389 57.41945259 72.93700052 58.81559972 72.296875 60.1953125 C71.92175781 61.02675781 71.54664063 61.85820312 71.16015625 62.71484375 C67.55885316 70.292349 63.40013701 76.41327481 57.296875 82.1953125 C56.801875 82.7934375 56.306875 83.3915625 55.796875 84.0078125 C53.6522179 85.70566604 51.94693394 85.41018214 49.296875 85.1953125 C47.73863499 82.78200937 47.21603958 81.6543687 47.72265625 78.77734375 C48.01527344 77.86339844 48.30789062 76.94945312 48.609375 76.0078125 C51.57527452 65.19022362 52.72786417 53.01324011 49.296875 42.1953125 C48.92755859 40.97134766 48.92755859 40.97134766 48.55078125 39.72265625 C44.43748016 27.89463046 36.40691085 20.18527666 25.375 14.7578125 C19.29041574 12.03982562 13.94804539 10.33204728 7.296875 10.1953125 C6.01683594 10.15664062 4.73679687 10.11796875 3.41796875 10.078125 C-14.97852827 9.69351468 -31.81016766 12.11067268 -45.703125 25.1953125 C-46.28835937 25.73929688 -46.87359375 26.28328125 -47.4765625 26.84375 C-54.92678977 34.59652457 -57.4711445 44.2797953 -57.2902832 54.76391602 C-56.32397722 73.20614393 -44.56260082 86.5620976 -31.59179688 98.55322266 C-27.51097736 102.10125679 -23.1402375 105.28688788 -18.73217773 108.4140625 C-17.02523895 109.63273496 -15.35957442 110.90885307 -13.703125 112.1953125 C-13.703125 112.8553125 -13.703125 113.5153125 -13.703125 114.1953125 C-12.97996094 114.453125 -12.25679688 114.7109375 -11.51171875 114.9765625 C-8.56298821 116.2561229 -6.33195569 117.76562162 -3.765625 119.6953125 C0.59447267 122.93743641 4.98777979 126.11854008 9.421875 129.2578125 C14.20685549 132.65500604 18.8736055 136.16165702 23.47265625 139.80859375 C25.39189899 141.32319969 25.39189899 141.32319969 28.046875 142.8203125 C30.91190655 144.57116512 32.92795556 146.81283701 35.296875 149.1953125 C36.76079014 150.51342721 38.22490054 151.8313774 39.69848633 153.13867188 C44.88169607 157.75915196 49.49023121 162.35991299 53.296875 168.1953125 C53.88082031 169.06027344 54.46476563 169.92523438 55.06640625 170.81640625 C66.43602285 188.07428744 69.71761996 206.24214588 65.859375 226.5703125 C62.61084135 241.71486334 54.68890018 253.93547728 44.296875 265.1953125 C43.306875 264.8653125 42.316875 264.5353125 41.296875 264.1953125 C40.23565429 256.63282704 39.27345594 249.13173708 39.00317383 241.49438477 C38.26482269 221.18196803 32.67050682 204.21288303 18.296875 189.1953125 C14.75946539 186.01962297 11.0436513 183.11789914 7.296875 180.1953125 C5.76403228 178.90387779 4.23124229 177.61235119 2.70532227 176.31274414 C-2.04647391 172.2690647 -6.82768186 168.60161115 -12.15625 165.3515625 C-12.92195313 164.77921875 -12.92195313 164.77921875 -13.703125 164.1953125 C-13.703125 163.5353125 -13.703125 162.8753125 -13.703125 162.1953125 C-14.77046875 161.8240625 -14.77046875 161.8240625 -15.859375 161.4453125 C-19.04323673 160.04581284 -21.44705104 158.3153694 -24.203125 156.1953125 C-25.25113281 155.39351562 -26.29914063 154.59171875 -27.37890625 153.765625 C-28.48701346 152.90889852 -29.59508591 152.05212708 -30.703125 151.1953125 C-31.82117982 150.33797439 -32.93966961 149.48120323 -34.05859375 148.625 C-36.25456707 146.94333241 -38.4456117 145.25555913 -40.6328125 143.5625 C-42.58716269 142.05571092 -44.54987623 140.55966269 -46.5234375 139.078125 C-47.34585938 138.45679688 -48.16828125 137.83546875 -49.015625 137.1953125 C-50.09263672 136.3909375 -50.09263672 136.3909375 -51.19140625 135.5703125 C-51.69027344 135.1165625 -52.18914062 134.6628125 -52.703125 134.1953125 C-52.703125 133.5353125 -52.703125 132.8753125 -52.703125 132.1953125 C-53.5075 131.9271875 -54.311875 131.6590625 -55.140625 131.3828125 C-56.4090625 130.795 -56.4090625 130.795 -57.703125 130.1953125 C-58.033125 129.2053125 -58.363125 128.2153125 -58.703125 127.1953125 C-59.6621875 126.73125 -59.6621875 126.73125 -60.640625 126.2578125 C-63.20364218 124.93747032 -63.4438587 123.7138451 -64.703125 121.1953125 C-65.30640625 120.91171875 -65.9096875 120.628125 -66.53125 120.3359375 C-75.69855942 115.52145126 -83.34240547 99.73291006 -86.703125 90.1953125 C-90.74454632 74.62835631 -89.32973089 58.38147709 -81.765625 44.1328125 C-80.77325997 42.46965896 -79.75423978 40.82197343 -78.703125 39.1953125 C-78.23261719 38.46054688 -77.76210937 37.72578125 -77.27734375 36.96875 C-76.16490728 35.3214252 -74.94486947 33.74749309 -73.703125 32.1953125 C-73.043125 32.1953125 -72.383125 32.1953125 -71.703125 32.1953125 C-71.455625 31.6178125 -71.208125 31.0403125 -70.953125 30.4453125 C-69.52012512 27.86591271 -67.91887824 26.13409658 -65.703125 24.1953125 C-65.043125 24.1953125 -64.383125 24.1953125 -63.703125 24.1953125 C-63.373125 23.2053125 -63.043125 22.2153125 -62.703125 21.1953125 C-49.5806862 9.60493508 -29.48747587 4.05863611 -12.703125 1.1953125 C-11.93613281 1.06125 -11.16914063 0.9271875 -10.37890625 0.7890625 C-6.93049465 0.30127147 -3.47656434 0.1833631 0 0 Z " fill="#0B0B0B" transform="translate(202.703125,67.8046875)"/>
<path d="M0 0 C1.89678713 0.36427781 3.79946125 0.69757919 5.70263672 1.02685547 C16.75749156 3.18422714 29.06434454 8.35731329 37.11279297 16.40576172 C37.47180023 21.79087071 36.83712356 25.28293228 35.11279297 30.40576172 C34.60197534 32.83682574 34.12435917 35.27503711 33.67529297 37.71826172 C32.72951051 42.68181008 31.57580287 47.4199061 29.86279297 52.17529297 C28.63297176 55.83273001 27.78391735 59.58192918 26.86669922 63.32763672 C26.11399297 66.40086224 25.3478324 69.46885154 24.55029297 72.53076172 C24.32212891 73.42021484 24.09396484 74.30966797 23.85888672 75.22607422 C23.11279297 77.40576172 23.11279297 77.40576172 21.11279297 79.40576172 C18.61279297 79.65576172 18.61279297 79.65576172 16.11279297 79.40576172 C14.11279297 77.40576172 14.11279297 77.40576172 13.94921875 75.3371582 C13.98515137 74.4922583 14.02108398 73.6473584 14.05810547 72.77685547 C14.08573975 71.83229492 14.11337402 70.88773437 14.1418457 69.91455078 C14.1735083 68.90102539 14.2051709 67.8875 14.23779297 66.84326172 C14.43398493 52.59772985 13.11146345 40.25477258 4.50341797 28.40966797 C3.11279297 26.40576172 3.11279297 26.40576172 3.11279297 24.40576172 C2.12279297 24.07576172 1.13279297 23.74576172 0.11279297 23.40576172 C-0.58845703 22.66326172 -1.28970703 21.92076172 -2.01220703 21.15576172 C-12.5733643 11.0537852 -27.83527112 8.05718774 -41.98095703 8.19091797 C-62.99675828 9.34678704 -84.27785109 17.02908636 -101.28564453 29.37451172 C-102.88720703 30.40576172 -102.88720703 30.40576172 -104.88720703 30.40576172 C-104.88720703 31.06576172 -104.88720703 31.72576172 -104.88720703 32.40576172 C-106.60986328 33.88623047 -106.60986328 33.88623047 -108.94970703 35.59326172 C-130.15603638 51.74574622 -145.56619012 79.19538282 -149.88720703 105.40576172 C-151.20720703 105.40576172 -152.52720703 105.40576172 -153.88720703 105.40576172 C-154.44408203 104.26107422 -154.44408203 104.26107422 -155.01220703 103.09326172 C-157.07101051 98.95585858 -159.33718507 94.93229375 -161.58251953 90.89404297 C-162.88720703 88.40576172 -162.88720703 88.40576172 -163.88720703 85.40576172 C-164.87720703 85.07576172 -165.86720703 84.74576172 -166.88720703 84.40576172 C-168.64111328 82.69873047 -168.64111328 82.69873047 -170.44970703 80.59326172 C-171.04912109 79.90619141 -171.64853516 79.21912109 -172.26611328 78.51123047 C-173.78369452 76.54020327 -174.86623661 74.66611911 -175.88720703 72.40576172 C-175.28392578 71.74189453 -174.68064453 71.07802734 -174.05908203 70.39404297 C-172.86025391 69.06953125 -172.86025391 69.06953125 -171.63720703 67.71826172 C-170.84830078 66.84814453 -170.05939453 65.97802734 -169.24658203 65.08154297 C-167.67424633 63.29834768 -166.16208957 61.46023985 -164.71533203 59.57373047 C-163.81041016 58.50058594 -163.81041016 58.50058594 -162.88720703 57.40576172 C-162.22720703 57.40576172 -161.56720703 57.40576172 -160.88720703 57.40576172 C-160.62552734 56.80892578 -160.36384766 56.21208984 -160.09423828 55.59716797 C-158.80853555 53.26293098 -157.60823607 52.04585242 -155.57470703 50.34326172 C-154.85669922 49.73998047 -154.13869141 49.13669922 -153.39892578 48.51513672 C-152.57005859 47.81904297 -151.74119141 47.12294922 -150.88720703 46.40576172 C-149.94490234 45.56529297 -149.00259766 44.72482422 -148.03173828 43.85888672 C-139.89989812 36.65551547 -131.24554913 30.89383509 -121.88720703 25.40576172 C-121.25572754 25.03290039 -120.62424805 24.66003906 -119.97363281 24.27587891 C-100.45222475 12.78908758 -80.56101656 4.50567268 -58.11181641 0.77783203 C-56.58311424 0.52215357 -55.05581103 0.25801156 -53.52978516 -0.01318359 C-35.23389235 -3.2578115 -18.27598718 -3.5129411 0 0 Z " fill="#101010" transform="translate(421.88720703125,142.59423828125)"/>
<path d="M0 0 C0.66 0.33 1.32 0.66 2 1 C-5.26 8.26 -12.52 15.52 -20 23 C-20.66 22.67 -21.32 22.34 -22 22 C-20.88200014 20.66079162 -19.75538103 19.32877444 -18.625 18 C-17.68527344 16.88625 -17.68527344 16.88625 -16.7265625 15.75 C-15.87191406 14.88375 -15.87191406 14.88375 -15 14 C-14.34 14 -13.68 14 -13 14 C-12.75121094 13.41347656 -12.50242187 12.82695312 -12.24609375 12.22265625 C-10.82588804 9.68943667 -9.28816254 8.29014647 -7.0625 6.4375 C-4.60267986 4.3730902 -2.23631078 2.30641457 0 0 Z " fill="#4E4E4E" transform="translate(274,186)"/>
<path d="M0 0 C1.32 0 2.64 0 4 0 C4.33 1.32 4.66 2.64 5 4 C3.68 4 2.36 4 1 4 C0.67 2.68 0.34 1.36 0 0 Z " fill="#6E6E6E" transform="translate(267,244)"/>
</svg>
