<svg width="112" height="86" viewBox="0 0 112 86" fill="none" xmlns="http://www.w3.org/2000/svg">
<g clip-path="url(#clip0)">
<path d="M59.6719 48.2656C59.1406 55.6094 56.4219 61.3906 51.5156 65.6094C46.6406 69.8281 40.2031 71.9375 32.2031 71.9375C23.4531 71.9375 16.5625 69 11.5312 63.125C6.53125 57.2188 4.03125 49.125 4.03125 38.8438V34.6719C4.03125 28.1094 5.1875 22.3281 7.5 17.3281C9.8125 12.3281 13.1094 8.5 17.3906 5.84375C21.7031 3.15625 26.7031 1.8125 32.3906 1.8125C40.2656 1.8125 46.6094 3.92188 51.4219 8.14062C56.2344 12.3594 59.0156 18.2812 59.7656 25.9062H45.7031C45.3594 21.5 44.125 18.3125 42 16.3438C39.9062 14.3438 36.7031 13.3438 32.3906 13.3438C27.7031 13.3438 24.1875 15.0312 21.8438 18.4062C19.5312 21.75 18.3438 26.9531 18.2812 34.0156V39.1719C18.2812 46.5469 19.3906 51.9375 21.6094 55.3438C23.8594 58.75 27.3906 60.4531 32.2031 60.4531C36.5469 60.4531 39.7812 59.4688 41.9062 57.5C44.0625 55.5 45.2969 52.4219 45.6094 48.2656H59.6719Z" fill="black"/>
<path d="M78.4688 58.625L71.1562 66.5V86H57.0938V17.75H71.1562V48.6875L77.3438 40.2031L94.7344 17.75H112.031L87.7969 48.0781L112.734 86H96L78.4688 58.625Z" fill="black"/>
</g>
<defs>
<clipPath id="clip0">
<rect width="112" height="86" fill="white"/>
</clipPath>
</defs>
</svg>
